G04 MADE WITH FRITZING*
G04 WWW.FRITZING.ORG*
G04 DOUBLE SIDED*
G04 HOLES PLATED*
G04 CONTOUR ON CENTER OF CONTOUR VECTOR*
%ASAXBY*%
%FSLAX23Y23*%
%MOIN*%
%OFA0B0*%
%SFA1.0B1.0*%
%ADD10R,0.001000X0.001000*%
%LNSILK0*%
G90*
G70*
G54D10*
X683Y603D02*
X683Y603D01*
X675Y602D02*
X691Y602D01*
X672Y601D02*
X694Y601D01*
X670Y600D02*
X696Y600D01*
X669Y599D02*
X697Y599D01*
X668Y598D02*
X675Y598D01*
X692Y598D02*
X698Y598D01*
X668Y597D02*
X672Y597D01*
X694Y597D02*
X698Y597D01*
X667Y596D02*
X671Y596D01*
X696Y596D02*
X699Y596D01*
X667Y595D02*
X670Y595D01*
X696Y595D02*
X699Y595D01*
X667Y594D02*
X670Y594D01*
X697Y594D02*
X699Y594D01*
X667Y593D02*
X669Y593D01*
X697Y593D02*
X699Y593D01*
X667Y592D02*
X669Y592D01*
X697Y592D02*
X699Y592D01*
X667Y591D02*
X670Y591D01*
X697Y591D02*
X699Y591D01*
X667Y590D02*
X670Y590D01*
X696Y590D02*
X699Y590D01*
X667Y589D02*
X671Y589D01*
X695Y589D02*
X699Y589D01*
X577Y588D02*
X578Y588D01*
X635Y588D02*
X637Y588D01*
X668Y588D02*
X673Y588D01*
X694Y588D02*
X698Y588D01*
X574Y587D02*
X579Y587D01*
X634Y587D02*
X639Y587D01*
X669Y587D02*
X677Y587D01*
X689Y587D02*
X698Y587D01*
X572Y586D02*
X580Y586D01*
X633Y586D02*
X641Y586D01*
X669Y586D02*
X697Y586D01*
X570Y585D02*
X582Y585D01*
X631Y585D02*
X643Y585D01*
X671Y585D02*
X695Y585D01*
X568Y584D02*
X581Y584D01*
X631Y584D02*
X645Y584D01*
X673Y584D02*
X693Y584D01*
X567Y583D02*
X579Y583D01*
X634Y583D02*
X647Y583D01*
X676Y583D02*
X690Y583D01*
X565Y582D02*
X577Y582D01*
X636Y582D02*
X648Y582D01*
X563Y581D02*
X575Y581D01*
X638Y581D02*
X650Y581D01*
X562Y580D02*
X573Y580D01*
X640Y580D02*
X651Y580D01*
X560Y579D02*
X571Y579D01*
X642Y579D02*
X653Y579D01*
X559Y578D02*
X569Y578D01*
X644Y578D02*
X654Y578D01*
X667Y578D02*
X670Y578D01*
X558Y577D02*
X568Y577D01*
X645Y577D02*
X655Y577D01*
X667Y577D02*
X670Y577D01*
X690Y577D02*
X692Y577D01*
X557Y576D02*
X566Y576D01*
X647Y576D02*
X656Y576D01*
X667Y576D02*
X670Y576D01*
X686Y576D02*
X695Y576D01*
X556Y575D02*
X565Y575D01*
X648Y575D02*
X658Y575D01*
X667Y575D02*
X670Y575D01*
X684Y575D02*
X696Y575D01*
X554Y574D02*
X563Y574D01*
X650Y574D02*
X659Y574D01*
X667Y574D02*
X670Y574D01*
X683Y574D02*
X697Y574D01*
X553Y573D02*
X562Y573D01*
X651Y573D02*
X659Y573D01*
X667Y573D02*
X670Y573D01*
X682Y573D02*
X698Y573D01*
X552Y572D02*
X561Y572D01*
X652Y572D02*
X659Y572D01*
X667Y572D02*
X670Y572D01*
X681Y572D02*
X687Y572D01*
X694Y572D02*
X699Y572D01*
X551Y571D02*
X559Y571D01*
X654Y571D02*
X659Y571D01*
X667Y571D02*
X670Y571D01*
X679Y571D02*
X685Y571D01*
X695Y571D02*
X699Y571D01*
X550Y570D02*
X558Y570D01*
X654Y570D02*
X659Y570D01*
X667Y570D02*
X670Y570D01*
X678Y570D02*
X683Y570D01*
X696Y570D02*
X699Y570D01*
X549Y569D02*
X557Y569D01*
X654Y569D02*
X659Y569D01*
X667Y569D02*
X670Y569D01*
X677Y569D02*
X682Y569D01*
X696Y569D02*
X699Y569D01*
X548Y568D02*
X556Y568D01*
X654Y568D02*
X659Y568D01*
X667Y568D02*
X670Y568D01*
X676Y568D02*
X681Y568D01*
X697Y568D02*
X699Y568D01*
X548Y567D02*
X555Y567D01*
X654Y567D02*
X659Y567D01*
X667Y567D02*
X670Y567D01*
X675Y567D02*
X680Y567D01*
X697Y567D02*
X699Y567D01*
X547Y566D02*
X554Y566D01*
X654Y566D02*
X659Y566D01*
X667Y566D02*
X670Y566D01*
X674Y566D02*
X678Y566D01*
X697Y566D02*
X699Y566D01*
X546Y565D02*
X553Y565D01*
X654Y565D02*
X659Y565D01*
X667Y565D02*
X670Y565D01*
X673Y565D02*
X677Y565D01*
X696Y565D02*
X699Y565D01*
X545Y564D02*
X552Y564D01*
X654Y564D02*
X659Y564D01*
X667Y564D02*
X670Y564D01*
X672Y564D02*
X676Y564D01*
X696Y564D02*
X699Y564D01*
X544Y563D02*
X551Y563D01*
X654Y563D02*
X659Y563D01*
X667Y563D02*
X675Y563D01*
X696Y563D02*
X699Y563D01*
X544Y562D02*
X551Y562D01*
X654Y562D02*
X659Y562D01*
X667Y562D02*
X674Y562D01*
X695Y562D02*
X698Y562D01*
X543Y561D02*
X550Y561D01*
X654Y561D02*
X659Y561D01*
X667Y561D02*
X673Y561D01*
X695Y561D02*
X698Y561D01*
X542Y560D02*
X549Y560D01*
X654Y560D02*
X659Y560D01*
X667Y560D02*
X672Y560D01*
X694Y560D02*
X698Y560D01*
X542Y559D02*
X548Y559D01*
X654Y559D02*
X659Y559D01*
X667Y559D02*
X671Y559D01*
X541Y558D02*
X547Y558D01*
X654Y558D02*
X659Y558D01*
X540Y557D02*
X547Y557D01*
X654Y557D02*
X659Y557D01*
X540Y556D02*
X546Y556D01*
X654Y556D02*
X659Y556D01*
X539Y555D02*
X546Y555D01*
X654Y555D02*
X659Y555D01*
X676Y555D02*
X678Y555D01*
X539Y554D02*
X545Y554D01*
X654Y554D02*
X659Y554D01*
X673Y554D02*
X681Y554D01*
X538Y553D02*
X544Y553D01*
X654Y553D02*
X659Y553D01*
X671Y553D02*
X682Y553D01*
X690Y553D02*
X694Y553D01*
X538Y552D02*
X544Y552D01*
X654Y552D02*
X659Y552D01*
X670Y552D02*
X683Y552D01*
X688Y552D02*
X696Y552D01*
X537Y551D02*
X543Y551D01*
X654Y551D02*
X659Y551D01*
X670Y551D02*
X684Y551D01*
X687Y551D02*
X697Y551D01*
X537Y550D02*
X543Y550D01*
X654Y550D02*
X659Y550D01*
X669Y550D02*
X673Y550D01*
X680Y550D02*
X684Y550D01*
X686Y550D02*
X698Y550D01*
X536Y549D02*
X542Y549D01*
X654Y549D02*
X659Y549D01*
X668Y549D02*
X672Y549D01*
X682Y549D02*
X690Y549D01*
X693Y549D02*
X698Y549D01*
X536Y548D02*
X542Y548D01*
X654Y548D02*
X659Y548D01*
X668Y548D02*
X671Y548D01*
X682Y548D02*
X687Y548D01*
X695Y548D02*
X698Y548D01*
X535Y547D02*
X541Y547D01*
X654Y547D02*
X659Y547D01*
X668Y547D02*
X671Y547D01*
X683Y547D02*
X687Y547D01*
X695Y547D02*
X698Y547D01*
X535Y546D02*
X540Y546D01*
X654Y546D02*
X659Y546D01*
X668Y546D02*
X671Y546D01*
X683Y546D02*
X686Y546D01*
X696Y546D02*
X699Y546D01*
X535Y545D02*
X540Y545D01*
X654Y545D02*
X659Y545D01*
X668Y545D02*
X670Y545D01*
X683Y545D02*
X686Y545D01*
X696Y545D02*
X699Y545D01*
X534Y544D02*
X540Y544D01*
X654Y544D02*
X659Y544D01*
X668Y544D02*
X670Y544D01*
X683Y544D02*
X686Y544D01*
X696Y544D02*
X699Y544D01*
X534Y543D02*
X539Y543D01*
X654Y543D02*
X659Y543D01*
X667Y543D02*
X670Y543D01*
X683Y543D02*
X686Y543D01*
X696Y543D02*
X699Y543D01*
X533Y542D02*
X539Y542D01*
X654Y542D02*
X659Y542D01*
X667Y542D02*
X670Y542D01*
X683Y542D02*
X686Y542D01*
X696Y542D02*
X699Y542D01*
X533Y541D02*
X538Y541D01*
X654Y541D02*
X659Y541D01*
X667Y541D02*
X670Y541D01*
X683Y541D02*
X686Y541D01*
X696Y541D02*
X699Y541D01*
X533Y540D02*
X538Y540D01*
X654Y540D02*
X659Y540D01*
X667Y540D02*
X670Y540D01*
X683Y540D02*
X686Y540D01*
X696Y540D02*
X699Y540D01*
X532Y539D02*
X538Y539D01*
X654Y539D02*
X659Y539D01*
X667Y539D02*
X670Y539D01*
X683Y539D02*
X686Y539D01*
X696Y539D02*
X699Y539D01*
X532Y538D02*
X537Y538D01*
X654Y538D02*
X659Y538D01*
X667Y538D02*
X670Y538D01*
X683Y538D02*
X686Y538D01*
X696Y538D02*
X699Y538D01*
X532Y537D02*
X537Y537D01*
X654Y537D02*
X659Y537D01*
X667Y537D02*
X699Y537D01*
X532Y536D02*
X537Y536D01*
X654Y536D02*
X659Y536D01*
X667Y536D02*
X699Y536D01*
X531Y535D02*
X537Y535D01*
X654Y535D02*
X659Y535D01*
X667Y535D02*
X699Y535D01*
X531Y534D02*
X536Y534D01*
X654Y534D02*
X659Y534D01*
X667Y534D02*
X699Y534D01*
X531Y533D02*
X536Y533D01*
X654Y533D02*
X659Y533D01*
X531Y532D02*
X536Y532D01*
X654Y532D02*
X659Y532D01*
X531Y531D02*
X536Y531D01*
X654Y531D02*
X659Y531D01*
X530Y530D02*
X535Y530D01*
X654Y530D02*
X659Y530D01*
X530Y529D02*
X535Y529D01*
X654Y529D02*
X659Y529D01*
X530Y528D02*
X535Y528D01*
X654Y528D02*
X659Y528D01*
X675Y528D02*
X676Y528D01*
X530Y527D02*
X535Y527D01*
X654Y527D02*
X659Y527D01*
X672Y527D02*
X680Y527D01*
X690Y527D02*
X694Y527D01*
X530Y526D02*
X535Y526D01*
X654Y526D02*
X659Y526D01*
X670Y526D02*
X681Y526D01*
X688Y526D02*
X696Y526D01*
X530Y525D02*
X534Y525D01*
X654Y525D02*
X659Y525D01*
X669Y525D02*
X682Y525D01*
X687Y525D02*
X697Y525D01*
X530Y524D02*
X534Y524D01*
X654Y524D02*
X659Y524D01*
X669Y524D02*
X683Y524D01*
X686Y524D02*
X698Y524D01*
X529Y523D02*
X534Y523D01*
X654Y523D02*
X659Y523D01*
X668Y523D02*
X672Y523D01*
X679Y523D02*
X683Y523D01*
X685Y523D02*
X690Y523D01*
X693Y523D02*
X698Y523D01*
X529Y522D02*
X534Y522D01*
X654Y522D02*
X659Y522D01*
X668Y522D02*
X671Y522D01*
X680Y522D02*
X687Y522D01*
X695Y522D02*
X699Y522D01*
X529Y521D02*
X534Y521D01*
X654Y521D02*
X659Y521D01*
X667Y521D02*
X670Y521D01*
X681Y521D02*
X686Y521D01*
X696Y521D02*
X699Y521D01*
X529Y520D02*
X534Y520D01*
X654Y520D02*
X659Y520D01*
X667Y520D02*
X669Y520D01*
X681Y520D02*
X685Y520D01*
X697Y520D02*
X699Y520D01*
X529Y519D02*
X534Y519D01*
X654Y519D02*
X659Y519D01*
X667Y519D02*
X669Y519D01*
X682Y519D02*
X685Y519D01*
X697Y519D02*
X699Y519D01*
X529Y518D02*
X534Y518D01*
X654Y518D02*
X659Y518D01*
X667Y518D02*
X669Y518D01*
X682Y518D02*
X685Y518D01*
X697Y518D02*
X699Y518D01*
X529Y517D02*
X534Y517D01*
X654Y517D02*
X659Y517D01*
X667Y517D02*
X669Y517D01*
X683Y517D02*
X686Y517D01*
X697Y517D02*
X699Y517D01*
X529Y516D02*
X534Y516D01*
X654Y516D02*
X659Y516D01*
X667Y516D02*
X669Y516D01*
X683Y516D02*
X686Y516D01*
X697Y516D02*
X699Y516D01*
X529Y515D02*
X534Y515D01*
X654Y515D02*
X659Y515D01*
X667Y515D02*
X670Y515D01*
X683Y515D02*
X687Y515D01*
X697Y515D02*
X699Y515D01*
X529Y514D02*
X534Y514D01*
X654Y514D02*
X659Y514D01*
X667Y514D02*
X670Y514D01*
X683Y514D02*
X688Y514D01*
X696Y514D02*
X699Y514D01*
X529Y513D02*
X534Y513D01*
X654Y513D02*
X659Y513D01*
X668Y513D02*
X671Y513D01*
X681Y513D02*
X689Y513D01*
X695Y513D02*
X699Y513D01*
X529Y512D02*
X534Y512D01*
X654Y512D02*
X659Y512D01*
X668Y512D02*
X673Y512D01*
X680Y512D02*
X683Y512D01*
X685Y512D02*
X698Y512D01*
X529Y511D02*
X534Y511D01*
X654Y511D02*
X659Y511D01*
X669Y511D02*
X683Y511D01*
X686Y511D02*
X697Y511D01*
X529Y510D02*
X534Y510D01*
X654Y510D02*
X659Y510D01*
X669Y510D02*
X682Y510D01*
X687Y510D02*
X696Y510D01*
X530Y509D02*
X534Y509D01*
X654Y509D02*
X659Y509D01*
X671Y509D02*
X681Y509D01*
X688Y509D02*
X695Y509D01*
X530Y508D02*
X534Y508D01*
X654Y508D02*
X659Y508D01*
X672Y508D02*
X679Y508D01*
X691Y508D02*
X692Y508D01*
X530Y507D02*
X535Y507D01*
X654Y507D02*
X659Y507D01*
X530Y506D02*
X535Y506D01*
X654Y506D02*
X659Y506D01*
X530Y505D02*
X535Y505D01*
X654Y505D02*
X659Y505D01*
X530Y504D02*
X535Y504D01*
X654Y504D02*
X659Y504D01*
X530Y503D02*
X535Y503D01*
X654Y503D02*
X659Y503D01*
X531Y502D02*
X535Y502D01*
X654Y502D02*
X659Y502D01*
X531Y501D02*
X536Y501D01*
X654Y501D02*
X659Y501D01*
X667Y501D02*
X670Y501D01*
X531Y500D02*
X536Y500D01*
X654Y500D02*
X659Y500D01*
X667Y500D02*
X670Y500D01*
X531Y499D02*
X536Y499D01*
X654Y499D02*
X659Y499D01*
X667Y499D02*
X670Y499D01*
X531Y498D02*
X536Y498D01*
X654Y498D02*
X659Y498D01*
X667Y498D02*
X670Y498D01*
X532Y497D02*
X537Y497D01*
X654Y497D02*
X659Y497D01*
X667Y497D02*
X670Y497D01*
X532Y496D02*
X537Y496D01*
X654Y496D02*
X659Y496D01*
X667Y496D02*
X670Y496D01*
X532Y495D02*
X537Y495D01*
X654Y495D02*
X659Y495D01*
X667Y495D02*
X699Y495D01*
X532Y494D02*
X538Y494D01*
X654Y494D02*
X659Y494D01*
X667Y494D02*
X699Y494D01*
X533Y493D02*
X538Y493D01*
X654Y493D02*
X659Y493D01*
X667Y493D02*
X699Y493D01*
X533Y492D02*
X538Y492D01*
X654Y492D02*
X659Y492D01*
X667Y492D02*
X697Y492D01*
X533Y491D02*
X539Y491D01*
X654Y491D02*
X659Y491D01*
X667Y491D02*
X670Y491D01*
X692Y491D02*
X695Y491D01*
X534Y490D02*
X539Y490D01*
X654Y490D02*
X659Y490D01*
X667Y490D02*
X670Y490D01*
X692Y490D02*
X695Y490D01*
X534Y489D02*
X539Y489D01*
X654Y489D02*
X659Y489D01*
X667Y489D02*
X670Y489D01*
X692Y489D02*
X695Y489D01*
X534Y488D02*
X540Y488D01*
X654Y488D02*
X659Y488D01*
X667Y488D02*
X670Y488D01*
X692Y488D02*
X695Y488D01*
X535Y487D02*
X540Y487D01*
X654Y487D02*
X659Y487D01*
X667Y487D02*
X670Y487D01*
X692Y487D02*
X694Y487D01*
X535Y486D02*
X541Y486D01*
X654Y486D02*
X659Y486D01*
X668Y486D02*
X669Y486D01*
X693Y486D02*
X694Y486D01*
X536Y485D02*
X541Y485D01*
X654Y485D02*
X659Y485D01*
X536Y484D02*
X542Y484D01*
X654Y484D02*
X659Y484D01*
X536Y483D02*
X542Y483D01*
X654Y483D02*
X659Y483D01*
X537Y482D02*
X543Y482D01*
X654Y482D02*
X659Y482D01*
X538Y481D02*
X543Y481D01*
X654Y481D02*
X659Y481D01*
X538Y480D02*
X544Y480D01*
X654Y480D02*
X659Y480D01*
X539Y479D02*
X544Y479D01*
X654Y479D02*
X659Y479D01*
X673Y479D02*
X679Y479D01*
X539Y478D02*
X545Y478D01*
X654Y478D02*
X659Y478D01*
X671Y478D02*
X681Y478D01*
X693Y478D02*
X697Y478D01*
X540Y477D02*
X546Y477D01*
X654Y477D02*
X659Y477D01*
X670Y477D02*
X682Y477D01*
X694Y477D02*
X698Y477D01*
X540Y476D02*
X547Y476D01*
X654Y476D02*
X659Y476D01*
X669Y476D02*
X683Y476D01*
X695Y476D02*
X698Y476D01*
X541Y475D02*
X547Y475D01*
X654Y475D02*
X659Y475D01*
X668Y475D02*
X673Y475D01*
X678Y475D02*
X683Y475D01*
X695Y475D02*
X699Y475D01*
X541Y474D02*
X548Y474D01*
X654Y474D02*
X659Y474D01*
X668Y474D02*
X672Y474D01*
X679Y474D02*
X684Y474D01*
X696Y474D02*
X699Y474D01*
X542Y473D02*
X549Y473D01*
X654Y473D02*
X659Y473D01*
X668Y473D02*
X671Y473D01*
X680Y473D02*
X684Y473D01*
X696Y473D02*
X699Y473D01*
X543Y472D02*
X549Y472D01*
X654Y472D02*
X659Y472D01*
X667Y472D02*
X670Y472D01*
X681Y472D02*
X684Y472D01*
X696Y472D02*
X699Y472D01*
X543Y471D02*
X550Y471D01*
X654Y471D02*
X659Y471D01*
X667Y471D02*
X670Y471D01*
X681Y471D02*
X684Y471D01*
X696Y471D02*
X699Y471D01*
X544Y470D02*
X551Y470D01*
X654Y470D02*
X659Y470D01*
X667Y470D02*
X670Y470D01*
X681Y470D02*
X685Y470D01*
X697Y470D02*
X699Y470D01*
X545Y469D02*
X552Y469D01*
X654Y469D02*
X659Y469D01*
X667Y469D02*
X670Y469D01*
X682Y469D02*
X685Y469D01*
X697Y469D02*
X699Y469D01*
X546Y468D02*
X553Y468D01*
X654Y468D02*
X659Y468D01*
X667Y468D02*
X670Y468D01*
X682Y468D02*
X685Y468D01*
X696Y468D02*
X699Y468D01*
X547Y467D02*
X554Y467D01*
X654Y467D02*
X659Y467D01*
X667Y467D02*
X670Y467D01*
X682Y467D02*
X685Y467D01*
X696Y467D02*
X699Y467D01*
X547Y466D02*
X555Y466D01*
X654Y466D02*
X659Y466D01*
X667Y466D02*
X670Y466D01*
X682Y466D02*
X686Y466D01*
X696Y466D02*
X699Y466D01*
X548Y465D02*
X556Y465D01*
X654Y465D02*
X659Y465D01*
X667Y465D02*
X670Y465D01*
X683Y465D02*
X686Y465D01*
X696Y465D02*
X699Y465D01*
X549Y464D02*
X557Y464D01*
X654Y464D02*
X659Y464D01*
X667Y464D02*
X670Y464D01*
X683Y464D02*
X687Y464D01*
X695Y464D02*
X698Y464D01*
X550Y463D02*
X558Y463D01*
X654Y463D02*
X659Y463D01*
X667Y463D02*
X671Y463D01*
X683Y463D02*
X688Y463D01*
X693Y463D02*
X698Y463D01*
X551Y462D02*
X559Y462D01*
X654Y462D02*
X659Y462D01*
X668Y462D02*
X671Y462D01*
X684Y462D02*
X697Y462D01*
X552Y461D02*
X560Y461D01*
X653Y461D02*
X659Y461D01*
X668Y461D02*
X672Y461D01*
X685Y461D02*
X697Y461D01*
X553Y460D02*
X561Y460D01*
X652Y460D02*
X659Y460D01*
X669Y460D02*
X672Y460D01*
X686Y460D02*
X695Y460D01*
X554Y459D02*
X563Y459D01*
X650Y459D02*
X659Y459D01*
X669Y459D02*
X673Y459D01*
X687Y459D02*
X694Y459D01*
X555Y458D02*
X564Y458D01*
X649Y458D02*
X658Y458D01*
X670Y458D02*
X673Y458D01*
X556Y457D02*
X566Y457D01*
X648Y457D02*
X657Y457D01*
X557Y456D02*
X567Y456D01*
X646Y456D02*
X656Y456D01*
X559Y455D02*
X568Y455D01*
X645Y455D02*
X654Y455D01*
X560Y454D02*
X570Y454D01*
X643Y454D02*
X653Y454D01*
X678Y454D02*
X688Y454D01*
X561Y453D02*
X572Y453D01*
X641Y453D02*
X652Y453D01*
X676Y453D02*
X691Y453D01*
X563Y452D02*
X574Y452D01*
X639Y452D02*
X650Y452D01*
X674Y452D02*
X692Y452D01*
X564Y451D02*
X576Y451D01*
X637Y451D02*
X649Y451D01*
X673Y451D02*
X694Y451D01*
X566Y450D02*
X578Y450D01*
X635Y450D02*
X647Y450D01*
X672Y450D02*
X680Y450D01*
X686Y450D02*
X695Y450D01*
X568Y449D02*
X581Y449D01*
X632Y449D02*
X646Y449D01*
X671Y449D02*
X676Y449D01*
X690Y449D02*
X695Y449D01*
X569Y448D02*
X582Y448D01*
X631Y448D02*
X644Y448D01*
X670Y448D02*
X675Y448D01*
X692Y448D02*
X696Y448D01*
X571Y447D02*
X581Y447D01*
X632Y447D02*
X642Y447D01*
X669Y447D02*
X673Y447D01*
X693Y447D02*
X697Y447D01*
X573Y446D02*
X580Y446D01*
X633Y446D02*
X640Y446D01*
X669Y446D02*
X673Y446D01*
X694Y446D02*
X697Y446D01*
X575Y445D02*
X579Y445D01*
X634Y445D02*
X638Y445D01*
X669Y445D02*
X672Y445D01*
X694Y445D02*
X698Y445D01*
X578Y444D02*
X578Y444D01*
X635Y444D02*
X635Y444D01*
X668Y444D02*
X671Y444D01*
X695Y444D02*
X698Y444D01*
X668Y443D02*
X671Y443D01*
X695Y443D02*
X698Y443D01*
X668Y442D02*
X671Y442D01*
X695Y442D02*
X698Y442D01*
X668Y441D02*
X670Y441D01*
X696Y441D02*
X699Y441D01*
X668Y440D02*
X670Y440D01*
X696Y440D02*
X699Y440D01*
X668Y439D02*
X670Y439D01*
X696Y439D02*
X699Y439D01*
X667Y438D02*
X670Y438D01*
X696Y438D02*
X699Y438D01*
X667Y437D02*
X670Y437D01*
X696Y437D02*
X699Y437D01*
X667Y436D02*
X670Y436D01*
X696Y436D02*
X699Y436D01*
X667Y435D02*
X670Y435D01*
X696Y435D02*
X699Y435D01*
X667Y434D02*
X670Y434D01*
X696Y434D02*
X699Y434D01*
X667Y433D02*
X699Y433D01*
X667Y432D02*
X699Y432D01*
X667Y431D02*
X699Y431D01*
X667Y430D02*
X699Y430D01*
D02*
G04 End of Silk0*
M02*