G04 MADE WITH FRITZING*
G04 WWW.FRITZING.ORG*
G04 DOUBLE SIDED*
G04 HOLES PLATED*
G04 CONTOUR ON CENTER OF CONTOUR VECTOR*
%ASAXBY*%
%FSLAX23Y23*%
%MOIN*%
%OFA0B0*%
%SFA1.0B1.0*%
%ADD10C,0.077778*%
%ADD11C,0.069444*%
%ADD12C,0.078000*%
%ADD13C,0.074000*%
%ADD14C,0.039370*%
%ADD15R,0.062992X0.074803*%
%ADD16R,0.074803X0.062992*%
%ADD17C,0.012000*%
%LNCOPPER1*%
G90*
G70*
G54D10*
X267Y56D03*
X367Y56D03*
X467Y56D03*
X567Y56D03*
X667Y56D03*
X767Y56D03*
X867Y56D03*
X967Y56D03*
X967Y956D03*
X867Y956D03*
X767Y956D03*
X667Y956D03*
X567Y956D03*
X467Y956D03*
X367Y956D03*
X267Y956D03*
G54D11*
X607Y416D03*
X607Y516D03*
X607Y616D03*
X607Y416D03*
X607Y516D03*
X607Y616D03*
G54D12*
X98Y788D03*
X98Y236D03*
X1007Y788D03*
X1007Y687D03*
X1007Y336D03*
X1007Y236D03*
X2127Y730D03*
X2027Y730D03*
X1927Y730D03*
X1827Y730D03*
X2127Y730D03*
X2027Y730D03*
X1927Y730D03*
X1827Y730D03*
X1418Y731D03*
X1518Y731D03*
X1618Y731D03*
X1718Y731D03*
G54D13*
X70Y415D03*
X70Y515D03*
X70Y615D03*
X70Y415D03*
X70Y515D03*
X70Y615D03*
G54D14*
X917Y686D03*
X827Y685D03*
X727Y516D03*
X917Y516D03*
X467Y186D03*
G54D15*
X1187Y66D03*
X1309Y66D03*
X1307Y196D03*
X1185Y196D03*
G54D16*
X217Y326D03*
X217Y204D03*
G54D17*
X249Y199D02*
X268Y196D01*
D02*
X268Y196D02*
X267Y79D01*
D02*
X249Y326D02*
X468Y325D01*
D02*
X468Y325D02*
X467Y199D01*
D02*
X767Y932D02*
X768Y625D01*
D02*
X768Y625D02*
X1927Y625D01*
D02*
X1927Y625D02*
X1927Y706D01*
D02*
X1087Y196D02*
X1087Y175D01*
D02*
X1087Y175D02*
X608Y175D01*
D02*
X1159Y196D02*
X1087Y196D01*
D02*
X608Y175D02*
X607Y126D01*
D02*
X607Y126D02*
X367Y126D01*
D02*
X367Y126D02*
X367Y79D01*
D02*
X1047Y66D02*
X1047Y126D01*
D02*
X1161Y66D02*
X1047Y66D01*
D02*
X1047Y126D02*
X667Y126D01*
D02*
X667Y126D02*
X667Y79D01*
D02*
X827Y866D02*
X867Y866D01*
D02*
X867Y866D02*
X867Y932D01*
D02*
X827Y699D02*
X827Y866D01*
D02*
X1308Y164D02*
X1309Y98D01*
D02*
X628Y416D02*
X1306Y415D01*
D02*
X1306Y415D02*
X1307Y228D01*
D02*
X96Y416D02*
X586Y416D01*
D02*
X917Y866D02*
X917Y699D01*
D02*
X968Y866D02*
X917Y866D01*
D02*
X967Y932D02*
X968Y866D01*
D02*
X904Y516D02*
X740Y516D01*
D02*
X1306Y565D02*
X2127Y565D01*
D02*
X2127Y565D02*
X2127Y706D01*
D02*
X1306Y415D02*
X1306Y565D01*
G04 End of Copper1*
M02*