G04 MADE WITH FRITZING*
G04 WWW.FRITZING.ORG*
G04 DOUBLE SIDED*
G04 HOLES PLATED*
G04 CONTOUR ON CENTER OF CONTOUR VECTOR*
%ASAXBY*%
%FSLAX23Y23*%
%MOIN*%
%OFA0B0*%
%SFA1.0B1.0*%
%ADD10C,0.077778*%
%ADD11C,0.069444*%
%ADD12C,0.078000*%
%ADD13C,0.074000*%
%ADD14C,0.039370*%
%ADD15C,0.012000*%
%LNCOPPER0*%
G90*
G70*
G54D10*
X267Y56D03*
X367Y56D03*
X467Y56D03*
X567Y56D03*
X667Y56D03*
X767Y56D03*
X867Y56D03*
X967Y56D03*
X967Y956D03*
X867Y956D03*
X767Y956D03*
X667Y956D03*
X567Y956D03*
X467Y956D03*
X367Y956D03*
X267Y956D03*
G54D11*
X607Y416D03*
X607Y516D03*
X607Y616D03*
X607Y416D03*
X607Y516D03*
X607Y616D03*
G54D12*
X98Y788D03*
X98Y236D03*
X1007Y788D03*
X1007Y687D03*
X1007Y336D03*
X1007Y236D03*
X2127Y730D03*
X2027Y730D03*
X1927Y730D03*
X1827Y730D03*
X2127Y730D03*
X2027Y730D03*
X1927Y730D03*
X1827Y730D03*
X1418Y731D03*
X1518Y731D03*
X1618Y731D03*
X1718Y731D03*
G54D13*
X70Y415D03*
X70Y515D03*
X70Y615D03*
G54D14*
X917Y686D03*
X827Y685D03*
X727Y516D03*
X917Y516D03*
X467Y186D03*
G54D15*
X667Y296D02*
X538Y296D01*
D02*
X538Y296D02*
X538Y516D01*
D02*
X667Y79D02*
X667Y296D01*
D02*
X538Y516D02*
X586Y516D01*
D02*
X667Y932D02*
X667Y846D01*
D02*
X1138Y846D02*
X1138Y655D01*
D02*
X1138Y655D02*
X1828Y655D01*
D02*
X667Y846D02*
X1138Y846D01*
D02*
X1828Y655D02*
X1827Y706D01*
D02*
X917Y672D02*
X917Y529D01*
D02*
X727Y416D02*
X628Y416D01*
D02*
X727Y502D02*
X727Y416D01*
D02*
X827Y616D02*
X628Y616D01*
D02*
X827Y236D02*
X827Y616D01*
D02*
X982Y236D02*
X827Y236D01*
D02*
X1138Y595D02*
X1138Y236D01*
D02*
X1138Y236D02*
X1032Y236D01*
D02*
X2028Y595D02*
X1138Y595D01*
D02*
X2027Y706D02*
X2028Y595D01*
D02*
X827Y616D02*
X827Y672D01*
D02*
X278Y516D02*
X278Y786D01*
D02*
X278Y786D02*
X982Y788D01*
D02*
X96Y516D02*
X278Y516D01*
D02*
X467Y172D02*
X467Y79D01*
G04 End of Copper0*
M02*