; NON-PLATED HOLES START AT T1
; THROUGH (PLATED) HOLES START AT T100
M48
INCH
T1C0.086614
T2C0.125984
T100C0.040000
T101C0.015748
T102C0.036111
T103C0.030556
T104C0.038000
%
T1
X014170Y005058
X041670Y005058
T2
X010470Y005058
T100
X000702Y006154
X000702Y005154
X000702Y004154
T101
X009170Y006858
X009170Y005158
X008274Y006852
X007270Y005158
X004670Y001858
T102
X002670Y000558
X006670Y009558
X003670Y000558
X008670Y009558
X007670Y000558
X009670Y000558
X006670Y000558
X005670Y009558
X002670Y009558
X007670Y009558
X005670Y000558
X004670Y000558
X004670Y009558
X003670Y009558
X008670Y000558
X009670Y009558
T103
X006069Y005160
X006070Y006158
X006070Y004159
T104
X000981Y007876
X020273Y007304
X018273Y007304
X000981Y002358
X021273Y007304
X017180Y007305
X010070Y003361
X015180Y007305
X014180Y007305
X016180Y007305
X019273Y007304
X010070Y002358
X010070Y006873
X010070Y007876
T00
M30
