; NON-PLATED HOLES START AT T1
; THROUGH (PLATED) HOLES START AT T100
M48
INCH
T1C0.086614
T100C0.015748
T101C0.027559
T102C0.030556
T103C0.040000
T104C0.038000
%
T1
X015719Y000753
X015768Y009464
T100
X010256Y005527
X006073Y005526
X006857Y005551
X010256Y007151
X001991Y003905
X007304Y004543
X007353Y007643
X004991Y007643
X013701Y001984
X006565Y001590
X012717Y002033
X007697Y006659
X010158Y008726
X005778Y007643
X011733Y002033
X009075Y004395
X006565Y007643
X010749Y002033
X008928Y001590
T101
X011733Y005871
X012733Y005871
X004957Y001245
X003957Y001245
X002957Y001245
X001957Y001245
T102
X013652Y004740
X013653Y005738
X013653Y003738
T103
X000512Y004986
X000512Y006056
X000512Y003916
T104
X000577Y002181
X009666Y007698
X009666Y006695
X000577Y007698
X009666Y002181
X009666Y003184
T00
M30
