; NON-PLATED HOLES START AT T1
; THROUGH (PLATED) HOLES START AT T100
M48
INCH
T1C0.086614
T100C0.040000
T101C0.038000
T102C0.030556
T103C0.027559
T104C0.015748
%
T1
X015768Y009464
X015719Y000753
T100
X000512Y004986
X000512Y003916
X000512Y006056
T101
X009666Y007698
X000577Y007698
X009666Y006695
X009666Y003184
X000577Y002181
X009666Y002181
T102
X013652Y004740
X013653Y005738
X013653Y003738
T103
X001957Y001245
X011733Y005871
X012733Y005871
X004957Y001245
X003957Y001245
X002957Y001245
T104
X010158Y008726
X010749Y002033
X011733Y002033
X007353Y007643
X005778Y007643
X006073Y005526
X009075Y004395
X006565Y001590
X013701Y001984
X010256Y007151
X008928Y001590
X007304Y004543
X012717Y002033
X004991Y007643
X006565Y007643
X007697Y006659
X001991Y003905
X006857Y005551
X010256Y005527
T00
M30
