G04 MADE WITH FRITZING*
G04 WWW.FRITZING.ORG*
G04 DOUBLE SIDED*
G04 HOLES PLATED*
G04 CONTOUR ON CENTER OF CONTOUR VECTOR*
%ASAXBY*%
%FSLAX23Y23*%
%MOIN*%
%OFA0B0*%
%SFA1.0B1.0*%
%ADD10C,0.049370*%
%ADD11C,0.096614*%
%ADD12C,0.088000*%
%ADD13C,0.077559*%
%ADD14C,0.079444*%
%ADD15C,0.084000*%
%ADD16R,0.084803X0.072992*%
%ADD17R,0.100551X0.072992*%
%ADD18R,0.001000X0.001000*%
%LNMASK1*%
G90*
G70*
G54D10*
X199Y391D03*
X1026Y715D03*
X1026Y553D03*
G54D11*
X1577Y946D03*
X1572Y75D03*
G54D12*
X58Y218D03*
X58Y770D03*
X967Y218D03*
X967Y318D03*
X967Y670D03*
X967Y770D03*
X58Y218D03*
X58Y770D03*
X967Y218D03*
X967Y318D03*
X967Y670D03*
X967Y770D03*
G54D13*
X1273Y587D03*
X1173Y587D03*
G54D14*
X1365Y374D03*
X1365Y474D03*
X1365Y574D03*
X1365Y374D03*
X1365Y474D03*
X1365Y574D03*
G54D10*
X730Y454D03*
X1075Y203D03*
X686Y555D03*
X657Y764D03*
X499Y764D03*
X578Y764D03*
X1370Y198D03*
X893Y159D03*
X607Y553D03*
X735Y764D03*
X657Y159D03*
X1016Y873D03*
X908Y440D03*
X1173Y203D03*
X1272Y203D03*
G54D13*
X196Y125D03*
X296Y125D03*
X396Y125D03*
X496Y125D03*
G54D15*
X51Y606D03*
X51Y499D03*
X51Y392D03*
X51Y606D03*
X51Y499D03*
X51Y392D03*
G54D10*
X770Y666D03*
G54D16*
X1075Y140D03*
X1075Y262D03*
X1173Y140D03*
X1173Y262D03*
X1173Y372D03*
X1173Y494D03*
X1272Y140D03*
X1272Y262D03*
X1370Y263D03*
X1370Y141D03*
X1075Y372D03*
X1075Y494D03*
G54D17*
X1117Y878D03*
X1365Y878D03*
X1117Y715D03*
X1365Y715D03*
G54D18*
X313Y893D02*
X369Y893D01*
X392Y893D02*
X448Y893D01*
X471Y893D02*
X527Y893D01*
X549Y893D02*
X605Y893D01*
X628Y893D02*
X684Y893D01*
X707Y893D02*
X763Y893D01*
X783Y893D02*
X839Y893D01*
X864Y893D02*
X920Y893D01*
X313Y892D02*
X369Y892D01*
X392Y892D02*
X448Y892D01*
X470Y892D02*
X527Y892D01*
X549Y892D02*
X605Y892D01*
X628Y892D02*
X684Y892D01*
X707Y892D02*
X763Y892D01*
X783Y892D02*
X839Y892D01*
X864Y892D02*
X920Y892D01*
X313Y891D02*
X369Y891D01*
X392Y891D02*
X448Y891D01*
X470Y891D02*
X527Y891D01*
X549Y891D02*
X605Y891D01*
X628Y891D02*
X684Y891D01*
X707Y891D02*
X763Y891D01*
X783Y891D02*
X839Y891D01*
X864Y891D02*
X920Y891D01*
X313Y890D02*
X369Y890D01*
X392Y890D02*
X448Y890D01*
X470Y890D02*
X527Y890D01*
X549Y890D02*
X605Y890D01*
X628Y890D02*
X684Y890D01*
X707Y890D02*
X763Y890D01*
X783Y890D02*
X839Y890D01*
X864Y890D02*
X920Y890D01*
X313Y889D02*
X369Y889D01*
X392Y889D02*
X448Y889D01*
X470Y889D02*
X527Y889D01*
X549Y889D02*
X605Y889D01*
X628Y889D02*
X684Y889D01*
X707Y889D02*
X763Y889D01*
X783Y889D02*
X839Y889D01*
X864Y889D02*
X920Y889D01*
X313Y888D02*
X369Y888D01*
X392Y888D02*
X448Y888D01*
X470Y888D02*
X527Y888D01*
X549Y888D02*
X605Y888D01*
X628Y888D02*
X684Y888D01*
X707Y888D02*
X763Y888D01*
X783Y888D02*
X839Y888D01*
X864Y888D02*
X920Y888D01*
X313Y887D02*
X369Y887D01*
X392Y887D02*
X448Y887D01*
X470Y887D02*
X527Y887D01*
X549Y887D02*
X605Y887D01*
X628Y887D02*
X684Y887D01*
X707Y887D02*
X763Y887D01*
X783Y887D02*
X839Y887D01*
X864Y887D02*
X920Y887D01*
X313Y886D02*
X369Y886D01*
X392Y886D02*
X448Y886D01*
X470Y886D02*
X527Y886D01*
X549Y886D02*
X605Y886D01*
X628Y886D02*
X684Y886D01*
X707Y886D02*
X763Y886D01*
X783Y886D02*
X839Y886D01*
X864Y886D02*
X920Y886D01*
X313Y885D02*
X369Y885D01*
X392Y885D02*
X448Y885D01*
X470Y885D02*
X527Y885D01*
X549Y885D02*
X605Y885D01*
X628Y885D02*
X684Y885D01*
X707Y885D02*
X763Y885D01*
X783Y885D02*
X839Y885D01*
X864Y885D02*
X920Y885D01*
X313Y884D02*
X369Y884D01*
X392Y884D02*
X448Y884D01*
X470Y884D02*
X527Y884D01*
X549Y884D02*
X605Y884D01*
X628Y884D02*
X684Y884D01*
X707Y884D02*
X763Y884D01*
X783Y884D02*
X839Y884D01*
X864Y884D02*
X920Y884D01*
X313Y883D02*
X369Y883D01*
X392Y883D02*
X448Y883D01*
X470Y883D02*
X527Y883D01*
X549Y883D02*
X605Y883D01*
X628Y883D02*
X684Y883D01*
X707Y883D02*
X763Y883D01*
X783Y883D02*
X839Y883D01*
X864Y883D02*
X920Y883D01*
X313Y882D02*
X369Y882D01*
X392Y882D02*
X448Y882D01*
X470Y882D02*
X527Y882D01*
X549Y882D02*
X605Y882D01*
X628Y882D02*
X684Y882D01*
X707Y882D02*
X763Y882D01*
X783Y882D02*
X839Y882D01*
X864Y882D02*
X920Y882D01*
X313Y881D02*
X369Y881D01*
X392Y881D02*
X448Y881D01*
X470Y881D02*
X527Y881D01*
X549Y881D02*
X605Y881D01*
X628Y881D02*
X684Y881D01*
X707Y881D02*
X763Y881D01*
X783Y881D02*
X839Y881D01*
X864Y881D02*
X920Y881D01*
X313Y880D02*
X369Y880D01*
X392Y880D02*
X448Y880D01*
X470Y880D02*
X527Y880D01*
X549Y880D02*
X605Y880D01*
X628Y880D02*
X684Y880D01*
X707Y880D02*
X763Y880D01*
X783Y880D02*
X839Y880D01*
X864Y880D02*
X920Y880D01*
X313Y879D02*
X369Y879D01*
X392Y879D02*
X448Y879D01*
X470Y879D02*
X527Y879D01*
X549Y879D02*
X605Y879D01*
X628Y879D02*
X684Y879D01*
X707Y879D02*
X763Y879D01*
X783Y879D02*
X839Y879D01*
X864Y879D02*
X920Y879D01*
X313Y878D02*
X369Y878D01*
X392Y878D02*
X448Y878D01*
X470Y878D02*
X527Y878D01*
X549Y878D02*
X605Y878D01*
X628Y878D02*
X684Y878D01*
X707Y878D02*
X763Y878D01*
X783Y878D02*
X839Y878D01*
X864Y878D02*
X920Y878D01*
X313Y877D02*
X369Y877D01*
X392Y877D02*
X448Y877D01*
X470Y877D02*
X527Y877D01*
X549Y877D02*
X605Y877D01*
X628Y877D02*
X684Y877D01*
X707Y877D02*
X763Y877D01*
X783Y877D02*
X839Y877D01*
X864Y877D02*
X920Y877D01*
X313Y876D02*
X369Y876D01*
X392Y876D02*
X448Y876D01*
X470Y876D02*
X527Y876D01*
X549Y876D02*
X605Y876D01*
X628Y876D02*
X684Y876D01*
X707Y876D02*
X763Y876D01*
X783Y876D02*
X839Y876D01*
X864Y876D02*
X920Y876D01*
X313Y875D02*
X369Y875D01*
X392Y875D02*
X448Y875D01*
X470Y875D02*
X527Y875D01*
X549Y875D02*
X605Y875D01*
X628Y875D02*
X684Y875D01*
X707Y875D02*
X763Y875D01*
X783Y875D02*
X839Y875D01*
X864Y875D02*
X920Y875D01*
X313Y874D02*
X369Y874D01*
X392Y874D02*
X448Y874D01*
X470Y874D02*
X527Y874D01*
X549Y874D02*
X605Y874D01*
X628Y874D02*
X684Y874D01*
X707Y874D02*
X763Y874D01*
X783Y874D02*
X839Y874D01*
X864Y874D02*
X920Y874D01*
X313Y873D02*
X369Y873D01*
X392Y873D02*
X448Y873D01*
X470Y873D02*
X527Y873D01*
X549Y873D02*
X605Y873D01*
X628Y873D02*
X684Y873D01*
X707Y873D02*
X763Y873D01*
X783Y873D02*
X839Y873D01*
X864Y873D02*
X920Y873D01*
X313Y872D02*
X369Y872D01*
X392Y872D02*
X448Y872D01*
X470Y872D02*
X527Y872D01*
X549Y872D02*
X605Y872D01*
X628Y872D02*
X684Y872D01*
X707Y872D02*
X763Y872D01*
X783Y872D02*
X839Y872D01*
X864Y872D02*
X920Y872D01*
X313Y871D02*
X369Y871D01*
X392Y871D02*
X448Y871D01*
X470Y871D02*
X527Y871D01*
X549Y871D02*
X605Y871D01*
X628Y871D02*
X684Y871D01*
X707Y871D02*
X763Y871D01*
X783Y871D02*
X839Y871D01*
X864Y871D02*
X920Y871D01*
X313Y870D02*
X369Y870D01*
X392Y870D02*
X448Y870D01*
X470Y870D02*
X527Y870D01*
X549Y870D02*
X605Y870D01*
X628Y870D02*
X684Y870D01*
X707Y870D02*
X763Y870D01*
X783Y870D02*
X839Y870D01*
X864Y870D02*
X920Y870D01*
X313Y869D02*
X369Y869D01*
X392Y869D02*
X448Y869D01*
X470Y869D02*
X527Y869D01*
X549Y869D02*
X605Y869D01*
X628Y869D02*
X684Y869D01*
X707Y869D02*
X763Y869D01*
X783Y869D02*
X839Y869D01*
X864Y869D02*
X920Y869D01*
X313Y868D02*
X369Y868D01*
X392Y868D02*
X448Y868D01*
X470Y868D02*
X527Y868D01*
X549Y868D02*
X605Y868D01*
X628Y868D02*
X684Y868D01*
X707Y868D02*
X763Y868D01*
X783Y868D02*
X839Y868D01*
X864Y868D02*
X920Y868D01*
X313Y867D02*
X369Y867D01*
X392Y867D02*
X448Y867D01*
X470Y867D02*
X527Y867D01*
X549Y867D02*
X605Y867D01*
X628Y867D02*
X684Y867D01*
X707Y867D02*
X763Y867D01*
X783Y867D02*
X839Y867D01*
X864Y867D02*
X920Y867D01*
X313Y866D02*
X369Y866D01*
X392Y866D02*
X448Y866D01*
X470Y866D02*
X527Y866D01*
X549Y866D02*
X605Y866D01*
X628Y866D02*
X684Y866D01*
X707Y866D02*
X763Y866D01*
X783Y866D02*
X839Y866D01*
X864Y866D02*
X920Y866D01*
X313Y865D02*
X369Y865D01*
X392Y865D02*
X448Y865D01*
X470Y865D02*
X527Y865D01*
X549Y865D02*
X605Y865D01*
X628Y865D02*
X684Y865D01*
X707Y865D02*
X763Y865D01*
X783Y865D02*
X839Y865D01*
X864Y865D02*
X920Y865D01*
X313Y864D02*
X369Y864D01*
X392Y864D02*
X448Y864D01*
X470Y864D02*
X527Y864D01*
X549Y864D02*
X605Y864D01*
X628Y864D02*
X684Y864D01*
X707Y864D02*
X763Y864D01*
X783Y864D02*
X839Y864D01*
X864Y864D02*
X920Y864D01*
X313Y863D02*
X369Y863D01*
X392Y863D02*
X448Y863D01*
X470Y863D02*
X527Y863D01*
X549Y863D02*
X605Y863D01*
X628Y863D02*
X684Y863D01*
X707Y863D02*
X763Y863D01*
X783Y863D02*
X839Y863D01*
X864Y863D02*
X920Y863D01*
X313Y862D02*
X369Y862D01*
X392Y862D02*
X448Y862D01*
X470Y862D02*
X527Y862D01*
X549Y862D02*
X605Y862D01*
X628Y862D02*
X684Y862D01*
X707Y862D02*
X763Y862D01*
X783Y862D02*
X839Y862D01*
X864Y862D02*
X920Y862D01*
X313Y861D02*
X369Y861D01*
X392Y861D02*
X448Y861D01*
X470Y861D02*
X527Y861D01*
X549Y861D02*
X605Y861D01*
X628Y861D02*
X684Y861D01*
X707Y861D02*
X763Y861D01*
X783Y861D02*
X839Y861D01*
X864Y861D02*
X920Y861D01*
X313Y860D02*
X369Y860D01*
X392Y860D02*
X448Y860D01*
X470Y860D02*
X527Y860D01*
X549Y860D02*
X605Y860D01*
X628Y860D02*
X684Y860D01*
X707Y860D02*
X763Y860D01*
X783Y860D02*
X839Y860D01*
X864Y860D02*
X920Y860D01*
X313Y859D02*
X369Y859D01*
X392Y859D02*
X448Y859D01*
X470Y859D02*
X527Y859D01*
X549Y859D02*
X605Y859D01*
X628Y859D02*
X684Y859D01*
X707Y859D02*
X763Y859D01*
X783Y859D02*
X839Y859D01*
X864Y859D02*
X920Y859D01*
X313Y858D02*
X369Y858D01*
X392Y858D02*
X448Y858D01*
X470Y858D02*
X527Y858D01*
X549Y858D02*
X605Y858D01*
X628Y858D02*
X684Y858D01*
X707Y858D02*
X763Y858D01*
X783Y858D02*
X839Y858D01*
X864Y858D02*
X920Y858D01*
X313Y857D02*
X369Y857D01*
X392Y857D02*
X448Y857D01*
X470Y857D02*
X527Y857D01*
X549Y857D02*
X605Y857D01*
X628Y857D02*
X684Y857D01*
X707Y857D02*
X763Y857D01*
X783Y857D02*
X839Y857D01*
X864Y857D02*
X920Y857D01*
X313Y856D02*
X369Y856D01*
X392Y856D02*
X448Y856D01*
X470Y856D02*
X527Y856D01*
X549Y856D02*
X605Y856D01*
X628Y856D02*
X684Y856D01*
X707Y856D02*
X763Y856D01*
X783Y856D02*
X839Y856D01*
X864Y856D02*
X920Y856D01*
X313Y855D02*
X369Y855D01*
X392Y855D02*
X448Y855D01*
X470Y855D02*
X527Y855D01*
X549Y855D02*
X605Y855D01*
X628Y855D02*
X684Y855D01*
X707Y855D02*
X763Y855D01*
X783Y855D02*
X839Y855D01*
X864Y855D02*
X920Y855D01*
X313Y854D02*
X369Y854D01*
X392Y854D02*
X448Y854D01*
X470Y854D02*
X527Y854D01*
X549Y854D02*
X605Y854D01*
X628Y854D02*
X684Y854D01*
X707Y854D02*
X763Y854D01*
X783Y854D02*
X839Y854D01*
X864Y854D02*
X920Y854D01*
X313Y853D02*
X369Y853D01*
X392Y853D02*
X448Y853D01*
X470Y853D02*
X527Y853D01*
X549Y853D02*
X605Y853D01*
X628Y853D02*
X684Y853D01*
X707Y853D02*
X763Y853D01*
X783Y853D02*
X839Y853D01*
X864Y853D02*
X920Y853D01*
X313Y852D02*
X369Y852D01*
X392Y852D02*
X448Y852D01*
X470Y852D02*
X527Y852D01*
X549Y852D02*
X605Y852D01*
X628Y852D02*
X684Y852D01*
X707Y852D02*
X763Y852D01*
X783Y852D02*
X839Y852D01*
X864Y852D02*
X920Y852D01*
X313Y851D02*
X369Y851D01*
X392Y851D02*
X448Y851D01*
X470Y851D02*
X527Y851D01*
X549Y851D02*
X605Y851D01*
X628Y851D02*
X684Y851D01*
X707Y851D02*
X763Y851D01*
X783Y851D02*
X839Y851D01*
X864Y851D02*
X920Y851D01*
X313Y850D02*
X369Y850D01*
X392Y850D02*
X448Y850D01*
X470Y850D02*
X527Y850D01*
X549Y850D02*
X605Y850D01*
X628Y850D02*
X684Y850D01*
X707Y850D02*
X763Y850D01*
X783Y850D02*
X839Y850D01*
X864Y850D02*
X920Y850D01*
X313Y849D02*
X369Y849D01*
X392Y849D02*
X448Y849D01*
X470Y849D02*
X527Y849D01*
X549Y849D02*
X605Y849D01*
X628Y849D02*
X684Y849D01*
X707Y849D02*
X763Y849D01*
X783Y849D02*
X839Y849D01*
X864Y849D02*
X920Y849D01*
X313Y848D02*
X369Y848D01*
X392Y848D02*
X448Y848D01*
X470Y848D02*
X527Y848D01*
X549Y848D02*
X605Y848D01*
X628Y848D02*
X684Y848D01*
X707Y848D02*
X763Y848D01*
X783Y848D02*
X839Y848D01*
X864Y848D02*
X920Y848D01*
X313Y847D02*
X369Y847D01*
X392Y847D02*
X448Y847D01*
X470Y847D02*
X527Y847D01*
X549Y847D02*
X605Y847D01*
X628Y847D02*
X684Y847D01*
X707Y847D02*
X763Y847D01*
X783Y847D02*
X839Y847D01*
X864Y847D02*
X920Y847D01*
X313Y846D02*
X369Y846D01*
X392Y846D02*
X448Y846D01*
X470Y846D02*
X527Y846D01*
X549Y846D02*
X605Y846D01*
X628Y846D02*
X684Y846D01*
X707Y846D02*
X763Y846D01*
X783Y846D02*
X839Y846D01*
X864Y846D02*
X920Y846D01*
X313Y845D02*
X369Y845D01*
X392Y845D02*
X448Y845D01*
X470Y845D02*
X527Y845D01*
X549Y845D02*
X605Y845D01*
X628Y845D02*
X684Y845D01*
X707Y845D02*
X763Y845D01*
X783Y845D02*
X839Y845D01*
X864Y845D02*
X920Y845D01*
X313Y844D02*
X369Y844D01*
X392Y844D02*
X448Y844D01*
X470Y844D02*
X527Y844D01*
X549Y844D02*
X605Y844D01*
X628Y844D02*
X684Y844D01*
X707Y844D02*
X763Y844D01*
X783Y844D02*
X839Y844D01*
X864Y844D02*
X920Y844D01*
X313Y843D02*
X369Y843D01*
X392Y843D02*
X448Y843D01*
X470Y843D02*
X527Y843D01*
X549Y843D02*
X605Y843D01*
X628Y843D02*
X684Y843D01*
X707Y843D02*
X763Y843D01*
X783Y843D02*
X839Y843D01*
X864Y843D02*
X920Y843D01*
X313Y842D02*
X369Y842D01*
X392Y842D02*
X448Y842D01*
X470Y842D02*
X527Y842D01*
X549Y842D02*
X605Y842D01*
X628Y842D02*
X684Y842D01*
X707Y842D02*
X763Y842D01*
X783Y842D02*
X839Y842D01*
X864Y842D02*
X920Y842D01*
X313Y841D02*
X369Y841D01*
X392Y841D02*
X448Y841D01*
X470Y841D02*
X527Y841D01*
X549Y841D02*
X605Y841D01*
X628Y841D02*
X684Y841D01*
X707Y841D02*
X763Y841D01*
X783Y841D02*
X839Y841D01*
X864Y841D02*
X920Y841D01*
X313Y840D02*
X369Y840D01*
X392Y840D02*
X448Y840D01*
X470Y840D02*
X527Y840D01*
X549Y840D02*
X605Y840D01*
X628Y840D02*
X684Y840D01*
X707Y840D02*
X763Y840D01*
X783Y840D02*
X839Y840D01*
X864Y840D02*
X920Y840D01*
X313Y839D02*
X369Y839D01*
X392Y839D02*
X448Y839D01*
X470Y839D02*
X527Y839D01*
X549Y839D02*
X605Y839D01*
X628Y839D02*
X684Y839D01*
X707Y839D02*
X763Y839D01*
X783Y839D02*
X839Y839D01*
X864Y839D02*
X920Y839D01*
X313Y838D02*
X369Y838D01*
X392Y838D02*
X448Y838D01*
X470Y838D02*
X527Y838D01*
X549Y838D02*
X605Y838D01*
X628Y838D02*
X684Y838D01*
X707Y838D02*
X763Y838D01*
X783Y838D02*
X839Y838D01*
X864Y838D02*
X920Y838D01*
X313Y837D02*
X369Y837D01*
X392Y837D02*
X448Y837D01*
X470Y837D02*
X527Y837D01*
X549Y837D02*
X605Y837D01*
X628Y837D02*
X684Y837D01*
X707Y837D02*
X763Y837D01*
X783Y837D02*
X839Y837D01*
X864Y837D02*
X920Y837D01*
X313Y836D02*
X369Y836D01*
X392Y836D02*
X448Y836D01*
X470Y836D02*
X527Y836D01*
X549Y836D02*
X605Y836D01*
X628Y836D02*
X684Y836D01*
X707Y836D02*
X763Y836D01*
X783Y836D02*
X839Y836D01*
X864Y836D02*
X920Y836D01*
X313Y835D02*
X369Y835D01*
X392Y835D02*
X448Y835D01*
X470Y835D02*
X527Y835D01*
X549Y835D02*
X605Y835D01*
X628Y835D02*
X684Y835D01*
X707Y835D02*
X763Y835D01*
X783Y835D02*
X839Y835D01*
X864Y835D02*
X920Y835D01*
X313Y834D02*
X369Y834D01*
X392Y834D02*
X448Y834D01*
X470Y834D02*
X527Y834D01*
X549Y834D02*
X605Y834D01*
X628Y834D02*
X684Y834D01*
X707Y834D02*
X763Y834D01*
X783Y834D02*
X839Y834D01*
X864Y834D02*
X920Y834D01*
X313Y833D02*
X369Y833D01*
X392Y833D02*
X448Y833D01*
X470Y833D02*
X527Y833D01*
X549Y833D02*
X605Y833D01*
X628Y833D02*
X684Y833D01*
X707Y833D02*
X763Y833D01*
X783Y833D02*
X839Y833D01*
X864Y833D02*
X920Y833D01*
X313Y832D02*
X369Y832D01*
X392Y832D02*
X448Y832D01*
X470Y832D02*
X527Y832D01*
X549Y832D02*
X605Y832D01*
X628Y832D02*
X684Y832D01*
X707Y832D02*
X763Y832D01*
X783Y832D02*
X839Y832D01*
X864Y832D02*
X920Y832D01*
X313Y831D02*
X369Y831D01*
X392Y831D02*
X448Y831D01*
X470Y831D02*
X527Y831D01*
X549Y831D02*
X605Y831D01*
X628Y831D02*
X684Y831D01*
X707Y831D02*
X763Y831D01*
X783Y831D02*
X839Y831D01*
X864Y831D02*
X920Y831D01*
X313Y830D02*
X369Y830D01*
X392Y830D02*
X448Y830D01*
X470Y830D02*
X527Y830D01*
X549Y830D02*
X605Y830D01*
X628Y830D02*
X684Y830D01*
X707Y830D02*
X763Y830D01*
X783Y830D02*
X839Y830D01*
X864Y830D02*
X920Y830D01*
X313Y829D02*
X369Y829D01*
X392Y829D02*
X448Y829D01*
X470Y829D02*
X527Y829D01*
X549Y829D02*
X605Y829D01*
X628Y829D02*
X684Y829D01*
X707Y829D02*
X763Y829D01*
X783Y829D02*
X839Y829D01*
X864Y829D02*
X920Y829D01*
X313Y828D02*
X369Y828D01*
X392Y828D02*
X448Y828D01*
X470Y828D02*
X527Y828D01*
X549Y828D02*
X605Y828D01*
X628Y828D02*
X684Y828D01*
X707Y828D02*
X763Y828D01*
X783Y828D02*
X839Y828D01*
X864Y828D02*
X920Y828D01*
X313Y827D02*
X338Y827D01*
X344Y827D02*
X369Y827D01*
X392Y827D02*
X417Y827D01*
X422Y827D02*
X448Y827D01*
X470Y827D02*
X496Y827D01*
X501Y827D02*
X527Y827D01*
X549Y827D02*
X575Y827D01*
X580Y827D02*
X605Y827D01*
X628Y827D02*
X653Y827D01*
X659Y827D02*
X684Y827D01*
X707Y827D02*
X732Y827D01*
X737Y827D02*
X763Y827D01*
X783Y827D02*
X809Y827D01*
X814Y827D02*
X839Y827D01*
X864Y827D02*
X890Y827D01*
X895Y827D02*
X920Y827D01*
X313Y826D02*
X336Y826D01*
X346Y826D02*
X369Y826D01*
X392Y826D02*
X415Y826D01*
X424Y826D02*
X448Y826D01*
X470Y826D02*
X494Y826D01*
X503Y826D02*
X527Y826D01*
X549Y826D02*
X573Y826D01*
X582Y826D02*
X605Y826D01*
X628Y826D02*
X651Y826D01*
X661Y826D02*
X684Y826D01*
X707Y826D02*
X730Y826D01*
X739Y826D02*
X763Y826D01*
X783Y826D02*
X807Y826D01*
X816Y826D02*
X839Y826D01*
X864Y826D02*
X888Y826D01*
X897Y826D02*
X920Y826D01*
X313Y825D02*
X335Y825D01*
X347Y825D02*
X369Y825D01*
X392Y825D02*
X414Y825D01*
X426Y825D02*
X448Y825D01*
X470Y825D02*
X493Y825D01*
X504Y825D02*
X527Y825D01*
X549Y825D02*
X572Y825D01*
X583Y825D02*
X605Y825D01*
X628Y825D02*
X650Y825D01*
X662Y825D02*
X684Y825D01*
X707Y825D02*
X729Y825D01*
X740Y825D02*
X763Y825D01*
X783Y825D02*
X806Y825D01*
X817Y825D02*
X839Y825D01*
X864Y825D02*
X886Y825D01*
X898Y825D02*
X920Y825D01*
X313Y824D02*
X335Y824D01*
X348Y824D02*
X369Y824D01*
X392Y824D02*
X413Y824D01*
X426Y824D02*
X448Y824D01*
X470Y824D02*
X492Y824D01*
X505Y824D02*
X527Y824D01*
X549Y824D02*
X571Y824D01*
X584Y824D02*
X605Y824D01*
X628Y824D02*
X649Y824D01*
X663Y824D02*
X684Y824D01*
X707Y824D02*
X728Y824D01*
X741Y824D02*
X763Y824D01*
X783Y824D02*
X805Y824D01*
X818Y824D02*
X839Y824D01*
X864Y824D02*
X886Y824D01*
X899Y824D02*
X920Y824D01*
X313Y823D02*
X334Y823D01*
X348Y823D02*
X369Y823D01*
X392Y823D02*
X413Y823D01*
X427Y823D02*
X448Y823D01*
X470Y823D02*
X491Y823D01*
X506Y823D02*
X527Y823D01*
X549Y823D02*
X570Y823D01*
X584Y823D02*
X605Y823D01*
X628Y823D02*
X649Y823D01*
X663Y823D02*
X684Y823D01*
X707Y823D02*
X728Y823D01*
X742Y823D02*
X763Y823D01*
X783Y823D02*
X804Y823D01*
X818Y823D02*
X839Y823D01*
X864Y823D02*
X885Y823D01*
X899Y823D02*
X920Y823D01*
X313Y822D02*
X334Y822D01*
X349Y822D02*
X369Y822D01*
X392Y822D02*
X412Y822D01*
X427Y822D02*
X448Y822D01*
X470Y822D02*
X491Y822D01*
X506Y822D02*
X527Y822D01*
X549Y822D02*
X570Y822D01*
X585Y822D02*
X605Y822D01*
X628Y822D02*
X649Y822D01*
X663Y822D02*
X684Y822D01*
X707Y822D02*
X727Y822D01*
X742Y822D02*
X763Y822D01*
X783Y822D02*
X804Y822D01*
X819Y822D02*
X839Y822D01*
X864Y822D02*
X885Y822D01*
X900Y822D02*
X920Y822D01*
X313Y821D02*
X333Y821D01*
X349Y821D02*
X369Y821D01*
X392Y821D02*
X412Y821D01*
X427Y821D02*
X448Y821D01*
X470Y821D02*
X491Y821D01*
X506Y821D02*
X527Y821D01*
X549Y821D02*
X570Y821D01*
X585Y821D02*
X605Y821D01*
X628Y821D02*
X648Y821D01*
X664Y821D02*
X684Y821D01*
X707Y821D02*
X727Y821D01*
X742Y821D02*
X763Y821D01*
X783Y821D02*
X804Y821D01*
X819Y821D02*
X839Y821D01*
X864Y821D02*
X885Y821D01*
X900Y821D02*
X920Y821D01*
X313Y820D02*
X333Y820D01*
X349Y820D02*
X369Y820D01*
X392Y820D02*
X412Y820D01*
X427Y820D02*
X448Y820D01*
X470Y820D02*
X491Y820D01*
X506Y820D02*
X527Y820D01*
X549Y820D02*
X570Y820D01*
X585Y820D02*
X605Y820D01*
X628Y820D02*
X648Y820D01*
X664Y820D02*
X684Y820D01*
X707Y820D02*
X727Y820D01*
X742Y820D02*
X763Y820D01*
X783Y820D02*
X804Y820D01*
X819Y820D02*
X839Y820D01*
X864Y820D02*
X885Y820D01*
X900Y820D02*
X920Y820D01*
X313Y819D02*
X333Y819D01*
X349Y819D02*
X369Y819D01*
X392Y819D02*
X412Y819D01*
X427Y819D02*
X448Y819D01*
X470Y819D02*
X491Y819D01*
X506Y819D02*
X527Y819D01*
X549Y819D02*
X570Y819D01*
X585Y819D02*
X605Y819D01*
X628Y819D02*
X648Y819D01*
X664Y819D02*
X684Y819D01*
X707Y819D02*
X727Y819D01*
X742Y819D02*
X763Y819D01*
X783Y819D02*
X804Y819D01*
X819Y819D02*
X839Y819D01*
X864Y819D02*
X885Y819D01*
X900Y819D02*
X920Y819D01*
X313Y818D02*
X334Y818D01*
X348Y818D02*
X369Y818D01*
X392Y818D02*
X412Y818D01*
X427Y818D02*
X448Y818D01*
X470Y818D02*
X491Y818D01*
X506Y818D02*
X527Y818D01*
X549Y818D02*
X570Y818D01*
X585Y818D02*
X605Y818D01*
X628Y818D02*
X649Y818D01*
X663Y818D02*
X684Y818D01*
X707Y818D02*
X727Y818D01*
X742Y818D02*
X763Y818D01*
X783Y818D02*
X804Y818D01*
X819Y818D02*
X839Y818D01*
X864Y818D02*
X885Y818D01*
X900Y818D02*
X920Y818D01*
X313Y817D02*
X334Y817D01*
X348Y817D02*
X369Y817D01*
X392Y817D02*
X413Y817D01*
X427Y817D02*
X448Y817D01*
X470Y817D02*
X492Y817D01*
X506Y817D02*
X527Y817D01*
X549Y817D02*
X570Y817D01*
X584Y817D02*
X605Y817D01*
X628Y817D02*
X649Y817D01*
X663Y817D02*
X684Y817D01*
X707Y817D02*
X728Y817D01*
X742Y817D02*
X763Y817D01*
X783Y817D02*
X804Y817D01*
X818Y817D02*
X839Y817D01*
X864Y817D02*
X885Y817D01*
X899Y817D02*
X920Y817D01*
X313Y816D02*
X335Y816D01*
X347Y816D02*
X369Y816D01*
X392Y816D02*
X414Y816D01*
X426Y816D02*
X448Y816D01*
X470Y816D02*
X492Y816D01*
X505Y816D02*
X527Y816D01*
X549Y816D02*
X571Y816D01*
X584Y816D02*
X605Y816D01*
X628Y816D02*
X650Y816D01*
X662Y816D02*
X684Y816D01*
X707Y816D02*
X728Y816D01*
X741Y816D02*
X763Y816D01*
X783Y816D02*
X805Y816D01*
X818Y816D02*
X839Y816D01*
X864Y816D02*
X886Y816D01*
X899Y816D02*
X920Y816D01*
X313Y815D02*
X336Y815D01*
X346Y815D02*
X369Y815D01*
X392Y815D02*
X414Y815D01*
X425Y815D02*
X448Y815D01*
X470Y815D02*
X493Y815D01*
X504Y815D02*
X527Y815D01*
X549Y815D02*
X572Y815D01*
X583Y815D02*
X605Y815D01*
X628Y815D02*
X651Y815D01*
X661Y815D02*
X684Y815D01*
X707Y815D02*
X729Y815D01*
X740Y815D02*
X763Y815D01*
X783Y815D02*
X806Y815D01*
X817Y815D02*
X839Y815D01*
X864Y815D02*
X887Y815D01*
X898Y815D02*
X920Y815D01*
X313Y814D02*
X337Y814D01*
X345Y814D02*
X369Y814D01*
X392Y814D02*
X416Y814D01*
X424Y814D02*
X448Y814D01*
X470Y814D02*
X494Y814D01*
X503Y814D02*
X527Y814D01*
X549Y814D02*
X573Y814D01*
X581Y814D02*
X605Y814D01*
X628Y814D02*
X652Y814D01*
X660Y814D02*
X684Y814D01*
X707Y814D02*
X731Y814D01*
X739Y814D02*
X763Y814D01*
X783Y814D02*
X807Y814D01*
X815Y814D02*
X839Y814D01*
X864Y814D02*
X888Y814D01*
X896Y814D02*
X920Y814D01*
X313Y813D02*
X369Y813D01*
X392Y813D02*
X448Y813D01*
X470Y813D02*
X527Y813D01*
X549Y813D02*
X605Y813D01*
X628Y813D02*
X684Y813D01*
X707Y813D02*
X763Y813D01*
X783Y813D02*
X839Y813D01*
X864Y813D02*
X920Y813D01*
X313Y812D02*
X369Y812D01*
X392Y812D02*
X448Y812D01*
X470Y812D02*
X527Y812D01*
X549Y812D02*
X605Y812D01*
X628Y812D02*
X684Y812D01*
X707Y812D02*
X763Y812D01*
X783Y812D02*
X839Y812D01*
X864Y812D02*
X920Y812D01*
X313Y811D02*
X369Y811D01*
X392Y811D02*
X448Y811D01*
X470Y811D02*
X527Y811D01*
X549Y811D02*
X605Y811D01*
X628Y811D02*
X684Y811D01*
X707Y811D02*
X763Y811D01*
X783Y811D02*
X839Y811D01*
X864Y811D02*
X920Y811D01*
X313Y810D02*
X369Y810D01*
X392Y810D02*
X448Y810D01*
X470Y810D02*
X527Y810D01*
X549Y810D02*
X605Y810D01*
X628Y810D02*
X684Y810D01*
X707Y810D02*
X763Y810D01*
X783Y810D02*
X839Y810D01*
X864Y810D02*
X920Y810D01*
X313Y809D02*
X369Y809D01*
X392Y809D02*
X448Y809D01*
X470Y809D02*
X527Y809D01*
X549Y809D02*
X605Y809D01*
X628Y809D02*
X684Y809D01*
X707Y809D02*
X763Y809D01*
X783Y809D02*
X839Y809D01*
X864Y809D02*
X920Y809D01*
X313Y808D02*
X369Y808D01*
X392Y808D02*
X448Y808D01*
X470Y808D02*
X527Y808D01*
X549Y808D02*
X605Y808D01*
X628Y808D02*
X684Y808D01*
X707Y808D02*
X763Y808D01*
X783Y808D02*
X839Y808D01*
X864Y808D02*
X920Y808D01*
X313Y807D02*
X369Y807D01*
X392Y807D02*
X448Y807D01*
X470Y807D02*
X527Y807D01*
X549Y807D02*
X605Y807D01*
X628Y807D02*
X684Y807D01*
X707Y807D02*
X763Y807D01*
X783Y807D02*
X839Y807D01*
X864Y807D02*
X920Y807D01*
X313Y806D02*
X369Y806D01*
X392Y806D02*
X448Y806D01*
X470Y806D02*
X527Y806D01*
X549Y806D02*
X605Y806D01*
X628Y806D02*
X684Y806D01*
X707Y806D02*
X763Y806D01*
X783Y806D02*
X839Y806D01*
X864Y806D02*
X920Y806D01*
X313Y805D02*
X369Y805D01*
X392Y805D02*
X448Y805D01*
X470Y805D02*
X527Y805D01*
X549Y805D02*
X605Y805D01*
X628Y805D02*
X684Y805D01*
X707Y805D02*
X763Y805D01*
X783Y805D02*
X839Y805D01*
X864Y805D02*
X920Y805D01*
X313Y804D02*
X369Y804D01*
X392Y804D02*
X448Y804D01*
X470Y804D02*
X527Y804D01*
X549Y804D02*
X605Y804D01*
X628Y804D02*
X684Y804D01*
X707Y804D02*
X763Y804D01*
X783Y804D02*
X839Y804D01*
X864Y804D02*
X920Y804D01*
X313Y803D02*
X369Y803D01*
X392Y803D02*
X448Y803D01*
X470Y803D02*
X527Y803D01*
X549Y803D02*
X605Y803D01*
X628Y803D02*
X684Y803D01*
X707Y803D02*
X763Y803D01*
X783Y803D02*
X839Y803D01*
X864Y803D02*
X920Y803D01*
X313Y802D02*
X369Y802D01*
X392Y802D02*
X448Y802D01*
X470Y802D02*
X527Y802D01*
X549Y802D02*
X605Y802D01*
X628Y802D02*
X684Y802D01*
X707Y802D02*
X763Y802D01*
X783Y802D02*
X839Y802D01*
X864Y802D02*
X920Y802D01*
X313Y801D02*
X369Y801D01*
X392Y801D02*
X448Y801D01*
X470Y801D02*
X527Y801D01*
X549Y801D02*
X605Y801D01*
X628Y801D02*
X684Y801D01*
X707Y801D02*
X763Y801D01*
X783Y801D02*
X839Y801D01*
X864Y801D02*
X920Y801D01*
X313Y800D02*
X369Y800D01*
X392Y800D02*
X448Y800D01*
X470Y800D02*
X527Y800D01*
X549Y800D02*
X605Y800D01*
X628Y800D02*
X684Y800D01*
X707Y800D02*
X763Y800D01*
X783Y800D02*
X839Y800D01*
X864Y800D02*
X920Y800D01*
X313Y799D02*
X369Y799D01*
X392Y799D02*
X448Y799D01*
X470Y799D02*
X527Y799D01*
X549Y799D02*
X605Y799D01*
X628Y799D02*
X684Y799D01*
X707Y799D02*
X763Y799D01*
X783Y799D02*
X839Y799D01*
X864Y799D02*
X920Y799D01*
X313Y798D02*
X369Y798D01*
X392Y798D02*
X448Y798D01*
X470Y798D02*
X527Y798D01*
X549Y798D02*
X605Y798D01*
X628Y798D02*
X684Y798D01*
X707Y798D02*
X763Y798D01*
X783Y798D02*
X839Y798D01*
X864Y798D02*
X920Y798D01*
X313Y797D02*
X369Y797D01*
X392Y797D02*
X448Y797D01*
X470Y797D02*
X527Y797D01*
X549Y797D02*
X605Y797D01*
X628Y797D02*
X684Y797D01*
X707Y797D02*
X763Y797D01*
X783Y797D02*
X839Y797D01*
X864Y797D02*
X920Y797D01*
X313Y796D02*
X369Y796D01*
X392Y796D02*
X448Y796D01*
X470Y796D02*
X527Y796D01*
X549Y796D02*
X605Y796D01*
X628Y796D02*
X684Y796D01*
X707Y796D02*
X763Y796D01*
X783Y796D02*
X839Y796D01*
X864Y796D02*
X920Y796D01*
X313Y795D02*
X369Y795D01*
X392Y795D02*
X448Y795D01*
X471Y795D02*
X526Y795D01*
X549Y795D02*
X605Y795D01*
X628Y795D02*
X684Y795D01*
X707Y795D02*
X763Y795D01*
X783Y795D02*
X839Y795D01*
X864Y795D02*
X920Y795D01*
X313Y273D02*
X369Y273D01*
X392Y273D02*
X448Y273D01*
X471Y273D02*
X527Y273D01*
X549Y273D02*
X605Y273D01*
X628Y273D02*
X684Y273D01*
X707Y273D02*
X763Y273D01*
X783Y273D02*
X839Y273D01*
X864Y273D02*
X920Y273D01*
X313Y272D02*
X369Y272D01*
X392Y272D02*
X448Y272D01*
X471Y272D02*
X527Y272D01*
X549Y272D02*
X605Y272D01*
X628Y272D02*
X684Y272D01*
X707Y272D02*
X763Y272D01*
X783Y272D02*
X839Y272D01*
X864Y272D02*
X920Y272D01*
X313Y271D02*
X369Y271D01*
X392Y271D02*
X448Y271D01*
X471Y271D02*
X527Y271D01*
X549Y271D02*
X605Y271D01*
X628Y271D02*
X684Y271D01*
X707Y271D02*
X763Y271D01*
X783Y271D02*
X839Y271D01*
X864Y271D02*
X920Y271D01*
X313Y270D02*
X369Y270D01*
X392Y270D02*
X448Y270D01*
X471Y270D02*
X527Y270D01*
X549Y270D02*
X605Y270D01*
X628Y270D02*
X684Y270D01*
X707Y270D02*
X763Y270D01*
X783Y270D02*
X839Y270D01*
X864Y270D02*
X920Y270D01*
X313Y269D02*
X369Y269D01*
X392Y269D02*
X448Y269D01*
X471Y269D02*
X527Y269D01*
X549Y269D02*
X605Y269D01*
X628Y269D02*
X684Y269D01*
X707Y269D02*
X763Y269D01*
X783Y269D02*
X839Y269D01*
X864Y269D02*
X920Y269D01*
X313Y268D02*
X369Y268D01*
X392Y268D02*
X448Y268D01*
X471Y268D02*
X527Y268D01*
X549Y268D02*
X605Y268D01*
X628Y268D02*
X684Y268D01*
X707Y268D02*
X763Y268D01*
X783Y268D02*
X839Y268D01*
X864Y268D02*
X920Y268D01*
X313Y267D02*
X369Y267D01*
X392Y267D02*
X448Y267D01*
X471Y267D02*
X527Y267D01*
X549Y267D02*
X605Y267D01*
X628Y267D02*
X684Y267D01*
X707Y267D02*
X763Y267D01*
X783Y267D02*
X839Y267D01*
X864Y267D02*
X920Y267D01*
X313Y266D02*
X369Y266D01*
X392Y266D02*
X448Y266D01*
X471Y266D02*
X527Y266D01*
X549Y266D02*
X605Y266D01*
X628Y266D02*
X684Y266D01*
X707Y266D02*
X763Y266D01*
X783Y266D02*
X839Y266D01*
X864Y266D02*
X920Y266D01*
X313Y265D02*
X369Y265D01*
X392Y265D02*
X448Y265D01*
X471Y265D02*
X527Y265D01*
X549Y265D02*
X605Y265D01*
X628Y265D02*
X684Y265D01*
X707Y265D02*
X763Y265D01*
X783Y265D02*
X839Y265D01*
X864Y265D02*
X920Y265D01*
X313Y264D02*
X369Y264D01*
X392Y264D02*
X448Y264D01*
X471Y264D02*
X527Y264D01*
X549Y264D02*
X605Y264D01*
X628Y264D02*
X684Y264D01*
X707Y264D02*
X763Y264D01*
X783Y264D02*
X839Y264D01*
X864Y264D02*
X920Y264D01*
X313Y263D02*
X369Y263D01*
X392Y263D02*
X448Y263D01*
X471Y263D02*
X527Y263D01*
X549Y263D02*
X605Y263D01*
X628Y263D02*
X684Y263D01*
X707Y263D02*
X763Y263D01*
X783Y263D02*
X839Y263D01*
X864Y263D02*
X920Y263D01*
X313Y262D02*
X369Y262D01*
X392Y262D02*
X448Y262D01*
X471Y262D02*
X527Y262D01*
X549Y262D02*
X605Y262D01*
X628Y262D02*
X684Y262D01*
X707Y262D02*
X763Y262D01*
X783Y262D02*
X839Y262D01*
X864Y262D02*
X920Y262D01*
X313Y261D02*
X369Y261D01*
X392Y261D02*
X448Y261D01*
X471Y261D02*
X527Y261D01*
X549Y261D02*
X605Y261D01*
X628Y261D02*
X684Y261D01*
X707Y261D02*
X763Y261D01*
X783Y261D02*
X839Y261D01*
X864Y261D02*
X920Y261D01*
X313Y260D02*
X369Y260D01*
X392Y260D02*
X448Y260D01*
X471Y260D02*
X527Y260D01*
X549Y260D02*
X605Y260D01*
X628Y260D02*
X684Y260D01*
X707Y260D02*
X763Y260D01*
X783Y260D02*
X839Y260D01*
X864Y260D02*
X920Y260D01*
X313Y259D02*
X369Y259D01*
X392Y259D02*
X448Y259D01*
X471Y259D02*
X527Y259D01*
X549Y259D02*
X605Y259D01*
X628Y259D02*
X684Y259D01*
X707Y259D02*
X763Y259D01*
X783Y259D02*
X839Y259D01*
X864Y259D02*
X920Y259D01*
X313Y258D02*
X369Y258D01*
X392Y258D02*
X448Y258D01*
X471Y258D02*
X527Y258D01*
X549Y258D02*
X605Y258D01*
X628Y258D02*
X684Y258D01*
X707Y258D02*
X763Y258D01*
X783Y258D02*
X839Y258D01*
X864Y258D02*
X920Y258D01*
X313Y257D02*
X369Y257D01*
X392Y257D02*
X448Y257D01*
X471Y257D02*
X527Y257D01*
X549Y257D02*
X605Y257D01*
X628Y257D02*
X684Y257D01*
X707Y257D02*
X763Y257D01*
X783Y257D02*
X839Y257D01*
X864Y257D02*
X920Y257D01*
X313Y256D02*
X369Y256D01*
X392Y256D02*
X448Y256D01*
X471Y256D02*
X527Y256D01*
X549Y256D02*
X605Y256D01*
X628Y256D02*
X684Y256D01*
X707Y256D02*
X763Y256D01*
X783Y256D02*
X839Y256D01*
X864Y256D02*
X920Y256D01*
X313Y255D02*
X338Y255D01*
X344Y255D02*
X369Y255D01*
X392Y255D02*
X417Y255D01*
X423Y255D02*
X448Y255D01*
X471Y255D02*
X495Y255D01*
X502Y255D02*
X527Y255D01*
X549Y255D02*
X574Y255D01*
X581Y255D02*
X605Y255D01*
X628Y255D02*
X653Y255D01*
X659Y255D02*
X684Y255D01*
X707Y255D02*
X732Y255D01*
X738Y255D02*
X763Y255D01*
X783Y255D02*
X808Y255D01*
X814Y255D02*
X839Y255D01*
X864Y255D02*
X889Y255D01*
X896Y255D02*
X920Y255D01*
X313Y254D02*
X336Y254D01*
X346Y254D02*
X369Y254D01*
X392Y254D02*
X415Y254D01*
X425Y254D02*
X448Y254D01*
X471Y254D02*
X494Y254D01*
X504Y254D02*
X527Y254D01*
X549Y254D02*
X572Y254D01*
X582Y254D02*
X605Y254D01*
X628Y254D02*
X651Y254D01*
X661Y254D02*
X684Y254D01*
X707Y254D02*
X730Y254D01*
X740Y254D02*
X763Y254D01*
X783Y254D02*
X806Y254D01*
X816Y254D02*
X839Y254D01*
X864Y254D02*
X887Y254D01*
X897Y254D02*
X920Y254D01*
X313Y253D02*
X335Y253D01*
X347Y253D02*
X369Y253D01*
X392Y253D02*
X414Y253D01*
X426Y253D02*
X448Y253D01*
X471Y253D02*
X493Y253D01*
X505Y253D02*
X527Y253D01*
X549Y253D02*
X571Y253D01*
X583Y253D02*
X605Y253D01*
X628Y253D02*
X650Y253D01*
X662Y253D02*
X684Y253D01*
X707Y253D02*
X729Y253D01*
X741Y253D02*
X763Y253D01*
X783Y253D02*
X805Y253D01*
X817Y253D02*
X839Y253D01*
X864Y253D02*
X886Y253D01*
X898Y253D02*
X920Y253D01*
X313Y252D02*
X334Y252D01*
X348Y252D02*
X369Y252D01*
X392Y252D02*
X413Y252D01*
X427Y252D02*
X448Y252D01*
X471Y252D02*
X492Y252D01*
X505Y252D02*
X527Y252D01*
X549Y252D02*
X571Y252D01*
X584Y252D02*
X605Y252D01*
X628Y252D02*
X649Y252D01*
X663Y252D02*
X684Y252D01*
X707Y252D02*
X728Y252D01*
X741Y252D02*
X763Y252D01*
X783Y252D02*
X805Y252D01*
X818Y252D02*
X839Y252D01*
X864Y252D02*
X886Y252D01*
X899Y252D02*
X920Y252D01*
X313Y251D02*
X334Y251D01*
X348Y251D02*
X369Y251D01*
X392Y251D02*
X413Y251D01*
X427Y251D02*
X448Y251D01*
X471Y251D02*
X491Y251D01*
X506Y251D02*
X527Y251D01*
X549Y251D02*
X570Y251D01*
X585Y251D02*
X605Y251D01*
X628Y251D02*
X649Y251D01*
X663Y251D02*
X684Y251D01*
X707Y251D02*
X728Y251D01*
X742Y251D02*
X763Y251D01*
X783Y251D02*
X804Y251D01*
X818Y251D02*
X839Y251D01*
X864Y251D02*
X885Y251D01*
X900Y251D02*
X920Y251D01*
X313Y250D02*
X334Y250D01*
X349Y250D02*
X369Y250D01*
X392Y250D02*
X412Y250D01*
X427Y250D02*
X448Y250D01*
X471Y250D02*
X491Y250D01*
X506Y250D02*
X527Y250D01*
X549Y250D02*
X570Y250D01*
X585Y250D02*
X605Y250D01*
X628Y250D02*
X649Y250D01*
X664Y250D02*
X684Y250D01*
X707Y250D02*
X727Y250D01*
X742Y250D02*
X763Y250D01*
X783Y250D02*
X804Y250D01*
X819Y250D02*
X839Y250D01*
X864Y250D02*
X885Y250D01*
X900Y250D02*
X920Y250D01*
X313Y249D02*
X333Y249D01*
X349Y249D02*
X369Y249D01*
X392Y249D02*
X412Y249D01*
X427Y249D02*
X448Y249D01*
X471Y249D02*
X491Y249D01*
X506Y249D02*
X527Y249D01*
X549Y249D02*
X570Y249D01*
X585Y249D02*
X605Y249D01*
X628Y249D02*
X648Y249D01*
X664Y249D02*
X684Y249D01*
X707Y249D02*
X727Y249D01*
X742Y249D02*
X763Y249D01*
X783Y249D02*
X804Y249D01*
X819Y249D02*
X839Y249D01*
X864Y249D02*
X885Y249D01*
X900Y249D02*
X920Y249D01*
X313Y248D02*
X333Y248D01*
X349Y248D02*
X369Y248D01*
X392Y248D02*
X412Y248D01*
X428Y248D02*
X448Y248D01*
X471Y248D02*
X491Y248D01*
X506Y248D02*
X527Y248D01*
X549Y248D02*
X570Y248D01*
X585Y248D02*
X605Y248D01*
X628Y248D02*
X648Y248D01*
X664Y248D02*
X684Y248D01*
X707Y248D02*
X727Y248D01*
X742Y248D02*
X763Y248D01*
X783Y248D02*
X804Y248D01*
X819Y248D02*
X839Y248D01*
X864Y248D02*
X885Y248D01*
X900Y248D02*
X920Y248D01*
X313Y247D02*
X333Y247D01*
X349Y247D02*
X369Y247D01*
X392Y247D02*
X412Y247D01*
X427Y247D02*
X448Y247D01*
X471Y247D02*
X491Y247D01*
X506Y247D02*
X527Y247D01*
X549Y247D02*
X570Y247D01*
X585Y247D02*
X605Y247D01*
X628Y247D02*
X649Y247D01*
X664Y247D02*
X684Y247D01*
X707Y247D02*
X727Y247D01*
X742Y247D02*
X763Y247D01*
X783Y247D02*
X804Y247D01*
X819Y247D02*
X839Y247D01*
X864Y247D02*
X885Y247D01*
X900Y247D02*
X920Y247D01*
X313Y246D02*
X334Y246D01*
X348Y246D02*
X369Y246D01*
X392Y246D02*
X413Y246D01*
X427Y246D02*
X448Y246D01*
X471Y246D02*
X491Y246D01*
X506Y246D02*
X527Y246D01*
X549Y246D02*
X570Y246D01*
X585Y246D02*
X605Y246D01*
X628Y246D02*
X649Y246D01*
X663Y246D02*
X684Y246D01*
X707Y246D02*
X727Y246D01*
X742Y246D02*
X763Y246D01*
X783Y246D02*
X804Y246D01*
X819Y246D02*
X839Y246D01*
X864Y246D02*
X885Y246D01*
X900Y246D02*
X920Y246D01*
X313Y245D02*
X334Y245D01*
X348Y245D02*
X369Y245D01*
X392Y245D02*
X413Y245D01*
X427Y245D02*
X448Y245D01*
X471Y245D02*
X492Y245D01*
X506Y245D02*
X527Y245D01*
X549Y245D02*
X570Y245D01*
X584Y245D02*
X605Y245D01*
X628Y245D02*
X649Y245D01*
X663Y245D02*
X684Y245D01*
X707Y245D02*
X728Y245D01*
X742Y245D02*
X763Y245D01*
X783Y245D02*
X804Y245D01*
X818Y245D02*
X839Y245D01*
X864Y245D02*
X885Y245D01*
X899Y245D02*
X920Y245D01*
X313Y244D02*
X335Y244D01*
X347Y244D02*
X369Y244D01*
X392Y244D02*
X414Y244D01*
X426Y244D02*
X448Y244D01*
X471Y244D02*
X493Y244D01*
X505Y244D02*
X527Y244D01*
X549Y244D02*
X571Y244D01*
X583Y244D02*
X605Y244D01*
X628Y244D02*
X650Y244D01*
X662Y244D02*
X684Y244D01*
X707Y244D02*
X729Y244D01*
X741Y244D02*
X763Y244D01*
X783Y244D02*
X805Y244D01*
X817Y244D02*
X839Y244D01*
X864Y244D02*
X886Y244D01*
X898Y244D02*
X920Y244D01*
X313Y243D02*
X336Y243D01*
X346Y243D02*
X369Y243D01*
X392Y243D02*
X415Y243D01*
X425Y243D02*
X448Y243D01*
X471Y243D02*
X494Y243D01*
X504Y243D02*
X527Y243D01*
X549Y243D02*
X572Y243D01*
X582Y243D02*
X605Y243D01*
X628Y243D02*
X651Y243D01*
X661Y243D02*
X684Y243D01*
X707Y243D02*
X730Y243D01*
X740Y243D02*
X763Y243D01*
X783Y243D02*
X806Y243D01*
X816Y243D02*
X839Y243D01*
X864Y243D02*
X887Y243D01*
X897Y243D02*
X920Y243D01*
X313Y242D02*
X337Y242D01*
X345Y242D02*
X369Y242D01*
X392Y242D02*
X416Y242D01*
X424Y242D02*
X448Y242D01*
X471Y242D02*
X495Y242D01*
X502Y242D02*
X527Y242D01*
X549Y242D02*
X574Y242D01*
X581Y242D02*
X605Y242D01*
X628Y242D02*
X652Y242D01*
X660Y242D02*
X684Y242D01*
X707Y242D02*
X731Y242D01*
X739Y242D02*
X763Y242D01*
X783Y242D02*
X807Y242D01*
X815Y242D02*
X839Y242D01*
X864Y242D02*
X889Y242D01*
X896Y242D02*
X920Y242D01*
X313Y241D02*
X369Y241D01*
X392Y241D02*
X448Y241D01*
X471Y241D02*
X527Y241D01*
X549Y241D02*
X605Y241D01*
X628Y241D02*
X684Y241D01*
X707Y241D02*
X763Y241D01*
X783Y241D02*
X839Y241D01*
X864Y241D02*
X920Y241D01*
X313Y240D02*
X369Y240D01*
X392Y240D02*
X448Y240D01*
X471Y240D02*
X527Y240D01*
X549Y240D02*
X605Y240D01*
X628Y240D02*
X684Y240D01*
X707Y240D02*
X763Y240D01*
X783Y240D02*
X839Y240D01*
X864Y240D02*
X920Y240D01*
X313Y239D02*
X369Y239D01*
X392Y239D02*
X448Y239D01*
X471Y239D02*
X527Y239D01*
X549Y239D02*
X605Y239D01*
X628Y239D02*
X684Y239D01*
X707Y239D02*
X763Y239D01*
X783Y239D02*
X839Y239D01*
X864Y239D02*
X920Y239D01*
X313Y238D02*
X369Y238D01*
X392Y238D02*
X448Y238D01*
X471Y238D02*
X527Y238D01*
X549Y238D02*
X605Y238D01*
X628Y238D02*
X684Y238D01*
X707Y238D02*
X763Y238D01*
X783Y238D02*
X839Y238D01*
X864Y238D02*
X920Y238D01*
X313Y237D02*
X369Y237D01*
X392Y237D02*
X448Y237D01*
X471Y237D02*
X527Y237D01*
X549Y237D02*
X605Y237D01*
X628Y237D02*
X684Y237D01*
X707Y237D02*
X763Y237D01*
X783Y237D02*
X839Y237D01*
X864Y237D02*
X920Y237D01*
X313Y236D02*
X369Y236D01*
X392Y236D02*
X448Y236D01*
X471Y236D02*
X527Y236D01*
X549Y236D02*
X605Y236D01*
X628Y236D02*
X684Y236D01*
X707Y236D02*
X763Y236D01*
X783Y236D02*
X839Y236D01*
X864Y236D02*
X920Y236D01*
X313Y235D02*
X369Y235D01*
X392Y235D02*
X448Y235D01*
X471Y235D02*
X527Y235D01*
X549Y235D02*
X605Y235D01*
X628Y235D02*
X684Y235D01*
X707Y235D02*
X763Y235D01*
X783Y235D02*
X839Y235D01*
X864Y235D02*
X920Y235D01*
X313Y234D02*
X369Y234D01*
X392Y234D02*
X448Y234D01*
X471Y234D02*
X527Y234D01*
X549Y234D02*
X605Y234D01*
X628Y234D02*
X684Y234D01*
X707Y234D02*
X763Y234D01*
X783Y234D02*
X839Y234D01*
X864Y234D02*
X920Y234D01*
X313Y233D02*
X369Y233D01*
X392Y233D02*
X448Y233D01*
X471Y233D02*
X527Y233D01*
X549Y233D02*
X605Y233D01*
X628Y233D02*
X684Y233D01*
X707Y233D02*
X763Y233D01*
X783Y233D02*
X839Y233D01*
X864Y233D02*
X920Y233D01*
X313Y232D02*
X369Y232D01*
X392Y232D02*
X448Y232D01*
X471Y232D02*
X527Y232D01*
X549Y232D02*
X605Y232D01*
X628Y232D02*
X684Y232D01*
X707Y232D02*
X763Y232D01*
X783Y232D02*
X839Y232D01*
X864Y232D02*
X920Y232D01*
X313Y231D02*
X369Y231D01*
X392Y231D02*
X448Y231D01*
X471Y231D02*
X527Y231D01*
X549Y231D02*
X605Y231D01*
X628Y231D02*
X684Y231D01*
X707Y231D02*
X763Y231D01*
X783Y231D02*
X839Y231D01*
X864Y231D02*
X920Y231D01*
X313Y230D02*
X369Y230D01*
X392Y230D02*
X448Y230D01*
X471Y230D02*
X527Y230D01*
X549Y230D02*
X605Y230D01*
X628Y230D02*
X684Y230D01*
X707Y230D02*
X763Y230D01*
X783Y230D02*
X839Y230D01*
X864Y230D02*
X920Y230D01*
X313Y229D02*
X369Y229D01*
X392Y229D02*
X448Y229D01*
X471Y229D02*
X527Y229D01*
X549Y229D02*
X605Y229D01*
X628Y229D02*
X684Y229D01*
X707Y229D02*
X763Y229D01*
X783Y229D02*
X839Y229D01*
X864Y229D02*
X920Y229D01*
X313Y228D02*
X369Y228D01*
X392Y228D02*
X448Y228D01*
X471Y228D02*
X527Y228D01*
X549Y228D02*
X605Y228D01*
X628Y228D02*
X684Y228D01*
X707Y228D02*
X763Y228D01*
X783Y228D02*
X839Y228D01*
X864Y228D02*
X920Y228D01*
X313Y227D02*
X369Y227D01*
X392Y227D02*
X448Y227D01*
X471Y227D02*
X527Y227D01*
X549Y227D02*
X605Y227D01*
X628Y227D02*
X684Y227D01*
X707Y227D02*
X763Y227D01*
X783Y227D02*
X839Y227D01*
X864Y227D02*
X920Y227D01*
X313Y226D02*
X369Y226D01*
X392Y226D02*
X448Y226D01*
X471Y226D02*
X527Y226D01*
X549Y226D02*
X605Y226D01*
X628Y226D02*
X684Y226D01*
X707Y226D02*
X763Y226D01*
X783Y226D02*
X839Y226D01*
X864Y226D02*
X920Y226D01*
X313Y225D02*
X369Y225D01*
X392Y225D02*
X448Y225D01*
X471Y225D02*
X527Y225D01*
X549Y225D02*
X605Y225D01*
X628Y225D02*
X684Y225D01*
X707Y225D02*
X763Y225D01*
X783Y225D02*
X839Y225D01*
X864Y225D02*
X920Y225D01*
X313Y224D02*
X369Y224D01*
X392Y224D02*
X448Y224D01*
X471Y224D02*
X527Y224D01*
X549Y224D02*
X605Y224D01*
X628Y224D02*
X684Y224D01*
X707Y224D02*
X763Y224D01*
X783Y224D02*
X839Y224D01*
X864Y224D02*
X920Y224D01*
X313Y223D02*
X369Y223D01*
X392Y223D02*
X448Y223D01*
X471Y223D02*
X527Y223D01*
X549Y223D02*
X605Y223D01*
X628Y223D02*
X684Y223D01*
X707Y223D02*
X763Y223D01*
X783Y223D02*
X839Y223D01*
X864Y223D02*
X920Y223D01*
X313Y222D02*
X369Y222D01*
X392Y222D02*
X448Y222D01*
X471Y222D02*
X527Y222D01*
X549Y222D02*
X605Y222D01*
X628Y222D02*
X684Y222D01*
X707Y222D02*
X763Y222D01*
X783Y222D02*
X839Y222D01*
X864Y222D02*
X920Y222D01*
X313Y221D02*
X369Y221D01*
X392Y221D02*
X448Y221D01*
X471Y221D02*
X527Y221D01*
X549Y221D02*
X605Y221D01*
X628Y221D02*
X684Y221D01*
X707Y221D02*
X763Y221D01*
X783Y221D02*
X839Y221D01*
X864Y221D02*
X920Y221D01*
X313Y220D02*
X369Y220D01*
X392Y220D02*
X448Y220D01*
X471Y220D02*
X527Y220D01*
X549Y220D02*
X605Y220D01*
X628Y220D02*
X684Y220D01*
X707Y220D02*
X763Y220D01*
X783Y220D02*
X839Y220D01*
X864Y220D02*
X920Y220D01*
X313Y219D02*
X369Y219D01*
X392Y219D02*
X448Y219D01*
X471Y219D02*
X527Y219D01*
X549Y219D02*
X605Y219D01*
X628Y219D02*
X684Y219D01*
X707Y219D02*
X763Y219D01*
X783Y219D02*
X839Y219D01*
X864Y219D02*
X920Y219D01*
X313Y218D02*
X369Y218D01*
X392Y218D02*
X448Y218D01*
X471Y218D02*
X527Y218D01*
X549Y218D02*
X605Y218D01*
X628Y218D02*
X684Y218D01*
X707Y218D02*
X763Y218D01*
X783Y218D02*
X839Y218D01*
X864Y218D02*
X920Y218D01*
X313Y217D02*
X369Y217D01*
X392Y217D02*
X448Y217D01*
X471Y217D02*
X527Y217D01*
X549Y217D02*
X605Y217D01*
X628Y217D02*
X684Y217D01*
X707Y217D02*
X763Y217D01*
X783Y217D02*
X839Y217D01*
X864Y217D02*
X920Y217D01*
X313Y216D02*
X369Y216D01*
X392Y216D02*
X448Y216D01*
X471Y216D02*
X527Y216D01*
X549Y216D02*
X605Y216D01*
X628Y216D02*
X684Y216D01*
X707Y216D02*
X763Y216D01*
X783Y216D02*
X839Y216D01*
X864Y216D02*
X920Y216D01*
X313Y215D02*
X369Y215D01*
X392Y215D02*
X448Y215D01*
X471Y215D02*
X527Y215D01*
X549Y215D02*
X605Y215D01*
X628Y215D02*
X684Y215D01*
X707Y215D02*
X763Y215D01*
X783Y215D02*
X839Y215D01*
X864Y215D02*
X920Y215D01*
X313Y214D02*
X369Y214D01*
X392Y214D02*
X448Y214D01*
X471Y214D02*
X527Y214D01*
X549Y214D02*
X605Y214D01*
X628Y214D02*
X684Y214D01*
X707Y214D02*
X763Y214D01*
X783Y214D02*
X839Y214D01*
X864Y214D02*
X920Y214D01*
X313Y213D02*
X369Y213D01*
X392Y213D02*
X448Y213D01*
X471Y213D02*
X527Y213D01*
X549Y213D02*
X605Y213D01*
X628Y213D02*
X684Y213D01*
X707Y213D02*
X763Y213D01*
X783Y213D02*
X839Y213D01*
X864Y213D02*
X920Y213D01*
X313Y212D02*
X369Y212D01*
X392Y212D02*
X448Y212D01*
X471Y212D02*
X527Y212D01*
X549Y212D02*
X605Y212D01*
X628Y212D02*
X684Y212D01*
X707Y212D02*
X763Y212D01*
X783Y212D02*
X839Y212D01*
X864Y212D02*
X920Y212D01*
X313Y211D02*
X369Y211D01*
X392Y211D02*
X448Y211D01*
X471Y211D02*
X527Y211D01*
X549Y211D02*
X605Y211D01*
X628Y211D02*
X684Y211D01*
X707Y211D02*
X763Y211D01*
X783Y211D02*
X839Y211D01*
X864Y211D02*
X920Y211D01*
X313Y210D02*
X369Y210D01*
X392Y210D02*
X448Y210D01*
X471Y210D02*
X527Y210D01*
X549Y210D02*
X605Y210D01*
X628Y210D02*
X684Y210D01*
X707Y210D02*
X763Y210D01*
X783Y210D02*
X839Y210D01*
X864Y210D02*
X920Y210D01*
X313Y209D02*
X369Y209D01*
X392Y209D02*
X448Y209D01*
X471Y209D02*
X527Y209D01*
X549Y209D02*
X605Y209D01*
X628Y209D02*
X684Y209D01*
X707Y209D02*
X763Y209D01*
X783Y209D02*
X839Y209D01*
X864Y209D02*
X920Y209D01*
X313Y208D02*
X369Y208D01*
X392Y208D02*
X448Y208D01*
X471Y208D02*
X527Y208D01*
X549Y208D02*
X605Y208D01*
X628Y208D02*
X684Y208D01*
X707Y208D02*
X763Y208D01*
X783Y208D02*
X839Y208D01*
X864Y208D02*
X920Y208D01*
X313Y207D02*
X369Y207D01*
X392Y207D02*
X448Y207D01*
X471Y207D02*
X527Y207D01*
X549Y207D02*
X605Y207D01*
X628Y207D02*
X684Y207D01*
X707Y207D02*
X763Y207D01*
X783Y207D02*
X839Y207D01*
X864Y207D02*
X920Y207D01*
X313Y206D02*
X369Y206D01*
X392Y206D02*
X448Y206D01*
X471Y206D02*
X527Y206D01*
X549Y206D02*
X605Y206D01*
X628Y206D02*
X684Y206D01*
X707Y206D02*
X763Y206D01*
X783Y206D02*
X839Y206D01*
X864Y206D02*
X920Y206D01*
X313Y205D02*
X369Y205D01*
X392Y205D02*
X448Y205D01*
X471Y205D02*
X527Y205D01*
X549Y205D02*
X605Y205D01*
X628Y205D02*
X684Y205D01*
X707Y205D02*
X763Y205D01*
X783Y205D02*
X839Y205D01*
X864Y205D02*
X920Y205D01*
X313Y204D02*
X369Y204D01*
X392Y204D02*
X448Y204D01*
X471Y204D02*
X527Y204D01*
X549Y204D02*
X605Y204D01*
X628Y204D02*
X684Y204D01*
X707Y204D02*
X763Y204D01*
X783Y204D02*
X839Y204D01*
X864Y204D02*
X920Y204D01*
X313Y203D02*
X369Y203D01*
X392Y203D02*
X448Y203D01*
X471Y203D02*
X527Y203D01*
X549Y203D02*
X605Y203D01*
X628Y203D02*
X684Y203D01*
X707Y203D02*
X763Y203D01*
X783Y203D02*
X839Y203D01*
X864Y203D02*
X920Y203D01*
X313Y202D02*
X369Y202D01*
X392Y202D02*
X448Y202D01*
X471Y202D02*
X527Y202D01*
X549Y202D02*
X605Y202D01*
X628Y202D02*
X684Y202D01*
X707Y202D02*
X763Y202D01*
X783Y202D02*
X839Y202D01*
X864Y202D02*
X920Y202D01*
X313Y201D02*
X369Y201D01*
X392Y201D02*
X448Y201D01*
X471Y201D02*
X527Y201D01*
X549Y201D02*
X605Y201D01*
X628Y201D02*
X684Y201D01*
X707Y201D02*
X763Y201D01*
X783Y201D02*
X839Y201D01*
X864Y201D02*
X920Y201D01*
X313Y200D02*
X369Y200D01*
X392Y200D02*
X448Y200D01*
X471Y200D02*
X527Y200D01*
X549Y200D02*
X605Y200D01*
X628Y200D02*
X684Y200D01*
X707Y200D02*
X763Y200D01*
X783Y200D02*
X839Y200D01*
X864Y200D02*
X920Y200D01*
X313Y199D02*
X369Y199D01*
X392Y199D02*
X448Y199D01*
X471Y199D02*
X527Y199D01*
X549Y199D02*
X605Y199D01*
X628Y199D02*
X684Y199D01*
X707Y199D02*
X763Y199D01*
X783Y199D02*
X839Y199D01*
X864Y199D02*
X920Y199D01*
X313Y198D02*
X369Y198D01*
X392Y198D02*
X448Y198D01*
X471Y198D02*
X527Y198D01*
X549Y198D02*
X605Y198D01*
X628Y198D02*
X684Y198D01*
X707Y198D02*
X763Y198D01*
X783Y198D02*
X839Y198D01*
X864Y198D02*
X920Y198D01*
X313Y197D02*
X369Y197D01*
X392Y197D02*
X448Y197D01*
X471Y197D02*
X527Y197D01*
X549Y197D02*
X605Y197D01*
X628Y197D02*
X684Y197D01*
X707Y197D02*
X763Y197D01*
X783Y197D02*
X839Y197D01*
X864Y197D02*
X920Y197D01*
X313Y196D02*
X369Y196D01*
X392Y196D02*
X448Y196D01*
X471Y196D02*
X527Y196D01*
X549Y196D02*
X605Y196D01*
X628Y196D02*
X684Y196D01*
X707Y196D02*
X763Y196D01*
X783Y196D02*
X839Y196D01*
X864Y196D02*
X920Y196D01*
X313Y195D02*
X369Y195D01*
X392Y195D02*
X448Y195D01*
X471Y195D02*
X527Y195D01*
X549Y195D02*
X605Y195D01*
X628Y195D02*
X684Y195D01*
X707Y195D02*
X763Y195D01*
X783Y195D02*
X839Y195D01*
X864Y195D02*
X920Y195D01*
X313Y194D02*
X369Y194D01*
X392Y194D02*
X448Y194D01*
X471Y194D02*
X527Y194D01*
X549Y194D02*
X605Y194D01*
X628Y194D02*
X684Y194D01*
X707Y194D02*
X763Y194D01*
X783Y194D02*
X839Y194D01*
X864Y194D02*
X920Y194D01*
X313Y193D02*
X369Y193D01*
X392Y193D02*
X448Y193D01*
X471Y193D02*
X527Y193D01*
X549Y193D02*
X605Y193D01*
X628Y193D02*
X684Y193D01*
X707Y193D02*
X763Y193D01*
X783Y193D02*
X839Y193D01*
X864Y193D02*
X920Y193D01*
X313Y192D02*
X369Y192D01*
X392Y192D02*
X448Y192D01*
X471Y192D02*
X527Y192D01*
X549Y192D02*
X605Y192D01*
X628Y192D02*
X684Y192D01*
X707Y192D02*
X763Y192D01*
X783Y192D02*
X839Y192D01*
X864Y192D02*
X920Y192D01*
X313Y191D02*
X369Y191D01*
X392Y191D02*
X448Y191D01*
X471Y191D02*
X527Y191D01*
X549Y191D02*
X605Y191D01*
X628Y191D02*
X684Y191D01*
X707Y191D02*
X763Y191D01*
X783Y191D02*
X839Y191D01*
X864Y191D02*
X920Y191D01*
X313Y190D02*
X369Y190D01*
X392Y190D02*
X448Y190D01*
X471Y190D02*
X527Y190D01*
X549Y190D02*
X605Y190D01*
X628Y190D02*
X684Y190D01*
X707Y190D02*
X763Y190D01*
X783Y190D02*
X839Y190D01*
X864Y190D02*
X920Y190D01*
X313Y189D02*
X369Y189D01*
X392Y189D02*
X448Y189D01*
X471Y189D02*
X527Y189D01*
X549Y189D02*
X605Y189D01*
X628Y189D02*
X684Y189D01*
X707Y189D02*
X763Y189D01*
X783Y189D02*
X839Y189D01*
X864Y189D02*
X920Y189D01*
X313Y188D02*
X369Y188D01*
X392Y188D02*
X448Y188D01*
X471Y188D02*
X527Y188D01*
X549Y188D02*
X605Y188D01*
X628Y188D02*
X684Y188D01*
X707Y188D02*
X763Y188D01*
X783Y188D02*
X839Y188D01*
X864Y188D02*
X920Y188D01*
X313Y187D02*
X369Y187D01*
X392Y187D02*
X448Y187D01*
X471Y187D02*
X527Y187D01*
X549Y187D02*
X605Y187D01*
X628Y187D02*
X684Y187D01*
X707Y187D02*
X763Y187D01*
X783Y187D02*
X839Y187D01*
X864Y187D02*
X920Y187D01*
X313Y186D02*
X369Y186D01*
X392Y186D02*
X448Y186D01*
X471Y186D02*
X527Y186D01*
X549Y186D02*
X605Y186D01*
X628Y186D02*
X684Y186D01*
X707Y186D02*
X763Y186D01*
X783Y186D02*
X839Y186D01*
X864Y186D02*
X920Y186D01*
X313Y185D02*
X369Y185D01*
X392Y185D02*
X448Y185D01*
X471Y185D02*
X527Y185D01*
X549Y185D02*
X605Y185D01*
X628Y185D02*
X684Y185D01*
X707Y185D02*
X763Y185D01*
X783Y185D02*
X839Y185D01*
X864Y185D02*
X920Y185D01*
X313Y184D02*
X369Y184D01*
X392Y184D02*
X448Y184D01*
X471Y184D02*
X527Y184D01*
X549Y184D02*
X605Y184D01*
X628Y184D02*
X684Y184D01*
X707Y184D02*
X763Y184D01*
X783Y184D02*
X839Y184D01*
X864Y184D02*
X920Y184D01*
X313Y183D02*
X369Y183D01*
X392Y183D02*
X448Y183D01*
X471Y183D02*
X527Y183D01*
X549Y183D02*
X605Y183D01*
X628Y183D02*
X684Y183D01*
X707Y183D02*
X763Y183D01*
X783Y183D02*
X839Y183D01*
X864Y183D02*
X920Y183D01*
X313Y182D02*
X369Y182D01*
X392Y182D02*
X448Y182D01*
X471Y182D02*
X527Y182D01*
X549Y182D02*
X605Y182D01*
X628Y182D02*
X684Y182D01*
X707Y182D02*
X763Y182D01*
X783Y182D02*
X839Y182D01*
X864Y182D02*
X920Y182D01*
X313Y181D02*
X369Y181D01*
X392Y181D02*
X448Y181D01*
X471Y181D02*
X527Y181D01*
X549Y181D02*
X605Y181D01*
X628Y181D02*
X684Y181D01*
X707Y181D02*
X763Y181D01*
X783Y181D02*
X839Y181D01*
X864Y181D02*
X920Y181D01*
X313Y180D02*
X369Y180D01*
X392Y180D02*
X448Y180D01*
X471Y180D02*
X527Y180D01*
X549Y180D02*
X605Y180D01*
X628Y180D02*
X684Y180D01*
X707Y180D02*
X763Y180D01*
X783Y180D02*
X839Y180D01*
X864Y180D02*
X920Y180D01*
X313Y179D02*
X369Y179D01*
X392Y179D02*
X448Y179D01*
X471Y179D02*
X527Y179D01*
X549Y179D02*
X605Y179D01*
X628Y179D02*
X684Y179D01*
X707Y179D02*
X763Y179D01*
X783Y179D02*
X839Y179D01*
X864Y179D02*
X920Y179D01*
X313Y178D02*
X369Y178D01*
X392Y178D02*
X448Y178D01*
X471Y178D02*
X527Y178D01*
X549Y178D02*
X605Y178D01*
X628Y178D02*
X684Y178D01*
X707Y178D02*
X763Y178D01*
X783Y178D02*
X839Y178D01*
X864Y178D02*
X920Y178D01*
X313Y177D02*
X369Y177D01*
X392Y177D02*
X448Y177D01*
X471Y177D02*
X527Y177D01*
X549Y177D02*
X605Y177D01*
X628Y177D02*
X684Y177D01*
X707Y177D02*
X763Y177D01*
X783Y177D02*
X839Y177D01*
X864Y177D02*
X920Y177D01*
X313Y176D02*
X369Y176D01*
X392Y176D02*
X448Y176D01*
X471Y176D02*
X527Y176D01*
X549Y176D02*
X605Y176D01*
X628Y176D02*
X684Y176D01*
X707Y176D02*
X763Y176D01*
X783Y176D02*
X839Y176D01*
X864Y176D02*
X920Y176D01*
D02*
G04 End of Mask1*
M02*