G04 MADE WITH FRITZING*
G04 WWW.FRITZING.ORG*
G04 DOUBLE SIDED*
G04 HOLES PLATED*
G04 CONTOUR ON CENTER OF CONTOUR VECTOR*
%ASAXBY*%
%FSLAX23Y23*%
%MOIN*%
%OFA0B0*%
%SFA1.0B1.0*%
%ADD10C,0.039370*%
%ADD11C,0.078000*%
%ADD12C,0.067559*%
%ADD13C,0.069444*%
%ADD14C,0.074000*%
%ADD15C,0.012000*%
%LNCOPPER0*%
G90*
G70*
G54D10*
X199Y391D03*
X1026Y715D03*
X1026Y553D03*
G54D11*
X58Y218D03*
X58Y770D03*
X967Y218D03*
X967Y318D03*
X967Y670D03*
X967Y770D03*
X58Y218D03*
X58Y770D03*
X967Y218D03*
X967Y318D03*
X967Y670D03*
X967Y770D03*
G54D12*
X1273Y587D03*
X1173Y587D03*
G54D13*
X1365Y374D03*
X1365Y474D03*
X1365Y574D03*
X1365Y374D03*
X1365Y474D03*
X1365Y574D03*
G54D10*
X730Y454D03*
X1075Y203D03*
X686Y555D03*
X657Y764D03*
X499Y764D03*
X578Y764D03*
X1370Y198D03*
X893Y159D03*
X607Y553D03*
X735Y764D03*
X657Y159D03*
X1016Y873D03*
X908Y440D03*
X1173Y203D03*
X1272Y203D03*
G54D12*
X196Y125D03*
X296Y125D03*
X396Y125D03*
X496Y125D03*
G54D14*
X51Y606D03*
X51Y499D03*
X51Y392D03*
G54D10*
X770Y666D03*
G54D15*
X196Y144D02*
X199Y377D01*
D02*
X1026Y566D02*
X1026Y702D01*
D02*
X657Y778D02*
X656Y873D01*
D02*
X656Y873D02*
X1002Y873D01*
D02*
X1075Y400D02*
X1075Y217D01*
D02*
X730Y400D02*
X1075Y400D01*
D02*
X730Y441D02*
X730Y400D01*
D02*
X499Y751D02*
X496Y144D01*
D02*
X396Y144D02*
X400Y833D01*
D02*
X400Y833D02*
X578Y833D01*
D02*
X1065Y661D02*
X1420Y661D01*
D02*
X1065Y509D02*
X1065Y661D01*
D02*
X809Y509D02*
X1065Y509D01*
D02*
X809Y720D02*
X809Y509D01*
D02*
X735Y720D02*
X809Y720D01*
D02*
X735Y751D02*
X735Y720D01*
D02*
X1272Y115D02*
X1272Y190D01*
D02*
X1419Y114D02*
X1272Y115D01*
D02*
X1420Y661D02*
X1419Y114D01*
D02*
X921Y440D02*
X1173Y439D01*
D02*
X1366Y353D02*
X1370Y212D01*
D02*
X1070Y769D02*
X991Y770D01*
D02*
X297Y917D02*
X1070Y917D01*
D02*
X296Y144D02*
X297Y917D01*
D02*
X608Y223D02*
X893Y223D01*
D02*
X893Y223D02*
X893Y172D01*
D02*
X607Y539D02*
X608Y223D01*
D02*
X686Y262D02*
X686Y542D01*
D02*
X913Y262D02*
X686Y262D01*
D02*
X948Y234D02*
X913Y262D01*
D02*
X1311Y474D02*
X1344Y474D01*
D02*
X1218Y114D02*
X1218Y257D01*
D02*
X657Y115D02*
X1218Y114D01*
D02*
X1311Y257D02*
X1311Y474D01*
D02*
X1218Y257D02*
X1311Y257D01*
D02*
X657Y146D02*
X657Y115D01*
D02*
X1095Y637D02*
X1222Y637D01*
D02*
X1222Y637D02*
X1259Y601D01*
D02*
X770Y479D02*
X1094Y479D01*
D02*
X1094Y479D02*
X1095Y637D01*
D02*
X770Y653D02*
X770Y479D01*
D02*
X578Y833D02*
X578Y778D01*
D02*
X1070Y917D02*
X1070Y769D01*
D02*
X1173Y439D02*
X1173Y217D01*
G04 End of Copper0*
M02*